<?xml version="1.0" encoding="UTF-8"?>
<svg width="233px" height="30px" viewBox="0 0 233 30" version="1.1" xmlns="http://www.w3.org/2000/svg" xmlns:xlink="http://www.w3.org/1999/xlink">
    <!-- Generator: Sketch 51 (57462) - http://www.bohemiancoding.com/sketch -->
    <title>导航栏顶部logo</title>
    <desc>Created with Sketch.</desc>
    <defs>
        <linearGradient x1="21.0466741%" y1="20.3949263%" x2="100%" y2="100%" id="linearGradient-1">
            <stop stop-color="#2868BB" offset="0%"></stop>
            <stop stop-color="#1B457A" offset="100%"></stop>
        </linearGradient>
        <linearGradient x1="50%" y1="0%" x2="50%" y2="100%" id="linearGradient-2">
            <stop stop-color="#2868BB" offset="0%"></stop>
            <stop stop-color="#1B457A" offset="100%"></stop>
        </linearGradient>
    </defs>
    <g id="Page-1" stroke="none" stroke-width="1" fill="none" fill-rule="evenodd">
        <g id="3-5-DApp-详情" transform="translate(-30.000000, -20.000000)">
            <rect fill="#FFFFFF" x="0" y="0" width="1920" height="1390"></rect>
            <g id="导航栏">
                <g id="导航栏顶部logo" transform="translate(30.000000, 20.000000)">
                    <g id="Group-4" transform="translate(36.000000, 3.000000)" fill="#2E406B">
                        <path d="M2.91063063,3.68866995 L1.34882883,3.68866995 C0.974171869,3.68866995 0.642787965,3.55822597 0.38666657,3.30230312 C0.130545174,3.04638026 0,2.71525323 0,2.3408867 C0,1.9718124 0.126538986,1.64112083 0.372990132,1.37591764 C0.628887127,1.10054989 0.966018162,0.957635468 1.34882883,0.957635468 L7.45405405,0.957635468 C7.83686472,0.957635468 8.17399576,1.10054989 8.42989275,1.37591764 C8.6763439,1.64112083 8.80288288,1.9718124 8.80288288,2.3408867 C8.80288288,2.71525323 8.67233771,3.04638026 8.41621631,3.30230312 C8.16009492,3.55822597 7.82871101,3.68866995 7.45405405,3.68866995 L5.89225225,3.68866995 L5.89225225,20.8551724 L7.45405405,20.8551724 C7.82871101,20.8551724 8.16009492,20.9856164 8.41621631,21.2415392 C8.67233771,21.4974621 8.80288288,21.8285891 8.80288288,22.2029557 C8.80288288,22.57203 8.6763439,22.9027215 8.42989275,23.1679247 C8.17399576,23.4432925 7.83686472,23.5862069 7.45405405,23.5862069 L1.34882883,23.5862069 C0.966018162,23.5862069 0.628887127,23.4432925 0.372990132,23.1679247 C0.126538986,22.9027215 0,22.57203 0,22.2029557 C0,21.8285891 0.130545174,21.4974621 0.38666657,21.2415392 C0.642787965,20.9856164 0.974171869,20.8551724 1.34882883,20.8551724 L2.91063063,20.8551724 L2.91063063,3.68866995 Z" id="IDC-WALLET" fill-rule="nonzero"></path>
                        <path d="M11.5537838,3.68866995 C11.1791268,3.68866995 10.8477429,3.55822597 10.5916215,3.30230312 C10.3355001,3.04638026 10.204955,2.71525323 10.204955,2.3408867 C10.204955,1.9718124 10.3314939,1.64112083 10.5779451,1.37591764 C10.8338421,1.10054989 11.1709731,0.957635468 11.5537838,0.957635468 L21.0310811,0.957635468 C24.3850025,0.957635468 27.1066235,1.98445323 29.1633334,4.03956881 C31.2209711,6.09561141 32.2476577,8.86240764 32.2476577,12.3073892 C32.2476577,15.7513708 31.239614,18.5057978 29.2177333,20.5385822 C27.1952262,22.5719965 24.4553564,23.5862069 21.0310811,23.5862069 L14.6063964,23.5862069 C13.7106277,23.5862069 13.1510811,23.0916071 13.1510811,22.2384236 L13.1510811,3.68866995 L11.5537838,3.68866995 Z M16.1327027,20.8551724 L21.0310811,20.8551724 C23.6395868,20.8551724 25.6481761,20.1087554 27.0914087,18.6226077 C28.537601,17.1334121 29.266036,15.0442574 29.266036,12.3251232 C29.266036,9.60665347 28.5206066,7.49994645 27.0382884,5.97456328 C25.5579688,4.45123682 23.5671207,3.68866995 21.0310811,3.68866995 L16.1327027,3.68866995 L16.1327027,20.8551724 Z" id="Combined-Shape"></path>
                        <path d="M52.0363964,17.8758621 C52.3868833,17.8758621 52.7280676,18.0244681 53.0635641,18.29585 C53.4247427,18.5880061 53.6336937,18.9161031 53.6336937,19.2945813 C53.6336937,19.6160161 53.5142642,19.9143585 53.2976462,20.1667932 C51.2052696,22.6806767 48.3207713,23.9408867 44.6888288,23.9408867 C41.4698214,23.9408867 38.8209271,22.8609257 36.7773804,20.7069042 C34.7386761,18.5579869 33.7207207,15.748375 33.7207207,12.3073892 C33.7207207,8.86721917 34.7381188,6.04674791 36.7752853,3.87462728 C38.8174646,1.69716171 41.4017942,0.602955665 44.4936036,0.602955665 C47.5278922,0.602955665 50.0741779,1.19151937 52.1094754,2.36800927 C52.6257474,2.6431409 52.9237838,3.06006846 52.9237838,3.58226601 L52.9237838,6.63251232 C52.9237838,7.030604 52.7558025,7.37679678 52.4431354,7.63064193 C52.1571824,7.86279857 51.8134632,7.98029557 51.432973,7.98029557 C51.0524827,7.98029557 50.7087635,7.86279857 50.4228106,7.63064193 C50.1101434,7.37679678 49.9421622,7.030604 49.9421622,6.63251232 L49.9421622,4.3541413 C48.3452859,3.67435849 46.5956326,3.33399015 44.6888288,3.33399015 C42.3056162,3.33399015 40.3981332,4.15241854 38.9275691,5.79861555 C37.4453337,7.45787772 36.7023423,9.60697497 36.7023423,12.2719212 C36.7023423,14.9368674 37.4453337,17.0859646 38.9275691,18.7452268 C40.3959951,20.3890304 42.3917536,21.2098522 44.955045,21.2098522 C47.5010046,21.2098522 49.5165798,20.2908919 51.0452659,18.4391649 C51.3016298,18.0822286 51.6387093,17.8758621 52.0363964,17.8758621 Z" id="Path"></path>
                        <g id="Group-13" transform="translate(62.000000, 0.000000)">
                            <path d="M10.200805,1.39360065 C10.3690053,1.05746085 10.6267833,0.820488905 10.9619094,0.715843164 C11.1982514,0.642043555 11.4016661,0.602955665 11.5821622,0.602955665 C12.1903103,0.602955665 12.6589139,0.887971531 12.8902582,1.42744097 L15.2754836,7.16519909 L17.7008973,1.37311191 C17.9237325,0.890676652 18.3002749,0.602955665 18.7877477,0.602955665 C19.1083754,0.602955665 19.3957439,0.64829447 19.6491117,0.743233738 C19.9833956,0.868493045 20.230048,1.12522349 20.3788167,1.47827509 C20.5297979,1.83657755 20.5297979,2.20815047 20.3782333,2.54871976 L16.8797566,10.7862644 L20.247918,19.0333792 L27.6041405,1.37311191 C27.8269757,0.890676652 28.2035181,0.602955665 28.690991,0.602955665 C29.4530395,0.602955665 30.0188702,0.89477094 30.2675734,1.46453661 C30.3529957,1.63524869 30.3947748,1.823109 30.3947748,2.02167488 C30.3947748,2.22024076 30.3529957,2.40810106 30.2820439,2.54737866 L21.6680246,22.9829782 C21.4481713,23.6054129 20.9346957,23.9408867 20.2430631,23.9408867 C19.5514304,23.9408867 19.0379548,23.6054129 18.8291325,23.0115586 L15.2736355,14.5348435 L11.7292858,22.9829782 C11.5101233,23.6034573 11.0035865,23.9408867 10.3220721,23.9408867 C9.64055762,23.9408867 9.1340208,23.6034573 8.92659579,23.0132351 L0.244318496,2.50787718 C0.158896238,2.3371651 0.117117117,2.1493048 0.117117117,1.95073892 C0.117117117,1.32771731 0.481351836,0.878129083 1.08460305,0.701193122 C1.27806751,0.636754959 1.46410784,0.602955665 1.64342342,0.602955665 C2.25157156,0.602955665 2.72017516,0.887971531 2.95044105,1.42486599 L10.3660122,19.0024277 L13.7032922,10.7869568 L10.170768,2.48157836 C10.0131495,2.12389969 10.0243353,1.74626634 10.200805,1.39360065 Z" id="Path"></path>
                            <path d="M37.9198198,3.68866995 C37.5451629,3.68866995 37.213779,3.55822597 36.9576576,3.30230312 C36.7015362,3.04638026 36.570991,2.71525323 36.570991,2.3408867 C36.570991,1.9718124 36.69753,1.64112083 36.9439811,1.37591764 C37.1998781,1.10054989 37.5370092,0.957635468 37.9198198,0.957635468 L41.0789189,0.957635468 C41.6491234,0.957635468 42.0984525,1.20253406 42.3370388,1.67934736 L52.3812671,21.9650292 C52.4666893,22.1357413 52.5084685,22.3236016 52.5084685,22.5221675 C52.5084685,23.1462898 52.181134,23.6164683 51.576478,23.8426492 C51.3830136,23.9070874 51.1969732,23.9408867 51.0176577,23.9408867 C50.4179931,23.9408867 49.9520045,23.677706 49.7240282,23.1836783 L46.5695479,16.8118227 L35.3398038,16.8118227 L32.1936447,23.1661053 C31.857324,23.9129053 31.1570681,24.1392831 30.3143118,23.8360766 C29.7322485,23.6179721 29.4009009,23.1627223 29.4009009,22.5576355 C29.4009009,22.3895781 29.4390666,22.2179657 29.5270425,22.0026271 L38.5889231,3.68866995 L37.9198198,3.68866995 Z M36.6387947,14.1162562 L45.2680254,14.1162562 L40.9385832,5.22703814 L36.6387947,14.1162562 Z" id="Combined-Shape"></path>
                            <path d="M68.6944144,19.2945813 C68.6944144,18.8964896 68.8623957,18.5502968 69.1750628,18.2964517 C69.4610158,18.064295 69.804735,17.946798 70.1852252,17.946798 C70.5657155,17.946798 70.9094347,18.064295 71.1953876,18.2964517 C71.5080548,18.5502968 71.676036,18.8964896 71.676036,19.2945813 L71.676036,22.2384236 C71.676036,23.0760951 71.1655285,23.5862069 70.3272072,23.5862069 L56.9099099,23.5862069 C56.3721013,23.5862069 55.9752638,23.4804656 55.7187765,23.2008781 C55.4874974,22.9487692 55.3836036,22.6090168 55.3836036,22.2029557 L55.3836036,3.68866995 L53.8218018,3.68866995 C53.4471448,3.68866995 53.1157609,3.55822597 52.8596395,3.30230312 C52.6035181,3.04638026 52.472973,2.71525323 52.472973,2.3408867 C52.472973,1.9718124 52.599512,1.64112083 52.8459631,1.37591764 C53.1018601,1.10054989 53.4389911,0.957635468 53.8218018,0.957635468 L59.927027,0.957635468 C60.3098377,0.957635468 60.6469687,1.10054989 60.9028657,1.37591764 C61.1493169,1.64112083 61.2758559,1.9718124 61.2758559,2.3408867 C61.2758559,2.71525323 61.1453107,3.04638026 60.8891893,3.30230312 C60.6330679,3.55822597 60.301684,3.68866995 59.927027,3.68866995 L58.3652252,3.68866995 L58.3652252,20.8551724 L68.6944144,20.8551724 L68.6944144,19.2945813 Z" id="Path"></path>
                            <path d="M88.2169369,19.2945813 C88.2169369,18.8964896 88.3849182,18.5502968 88.6975854,18.2964517 C88.9835383,18.064295 89.3272575,17.946798 89.7077477,17.946798 C90.088238,17.946798 90.4319572,18.064295 90.7179101,18.2964517 C91.0305773,18.5502968 91.1985586,18.8964896 91.1985586,19.2945813 L91.1985586,22.2384236 C91.1985586,23.0760951 90.688051,23.5862069 89.8497297,23.5862069 L76.4324324,23.5862069 C75.8946239,23.5862069 75.4977863,23.4804656 75.241299,23.2008781 C75.0100199,22.9487692 74.9061261,22.6090168 74.9061261,22.2029557 L74.9061261,3.68866995 L73.3443243,3.68866995 C72.9696674,3.68866995 72.6382835,3.55822597 72.3821621,3.30230312 C72.1260407,3.04638026 71.9954955,2.71525323 71.9954955,2.3408867 C71.9954955,1.9718124 72.1220345,1.64112083 72.3684856,1.37591764 C72.6243826,1.10054989 72.9615137,0.957635468 73.3443243,0.957635468 L79.4495495,0.957635468 C79.8323602,0.957635468 80.1694913,1.10054989 80.4253882,1.37591764 C80.6718394,1.64112083 80.7983784,1.9718124 80.7983784,2.3408867 C80.7983784,2.71525323 80.6678332,3.04638026 80.4117118,3.30230312 C80.1555904,3.55822597 79.8242065,3.68866995 79.4495495,3.68866995 L77.8877477,3.68866995 L77.8877477,20.8551724 L88.2169369,20.8551724 L88.2169369,19.2945813 Z" id="Path"></path>
                            <path d="M92.8668468,3.68866995 C92.4921899,3.68866995 92.160806,3.55822597 91.9046846,3.30230312 C91.6485632,3.04638026 91.518018,2.71525323 91.518018,2.3408867 C91.518018,1.9718124 91.644557,1.64112083 91.8910081,1.37591764 C92.1469051,1.10054989 92.4840362,0.957635468 92.8668468,0.957635468 L109.514234,0.957635468 C110.414451,0.957635468 110.96955,1.46963715 110.96955,2.3408867 L110.96955,5.24926108 C110.96955,5.64735277 110.801568,5.99354555 110.488901,6.2473907 C110.202948,6.47954734 109.859229,6.59704433 109.478739,6.59704433 C109.098248,6.59704433 108.754529,6.47954734 108.468576,6.2473907 C108.155909,5.99354555 107.987928,5.64735277 107.987928,5.24926108 L107.987928,3.68866995 L97.4102703,3.68866995 L97.4102703,10.853202 L106.355135,10.853202 L106.355135,10.0729064 C106.355135,9.68249108 106.510656,9.34061101 106.805078,9.08564325 C107.082231,8.84562934 107.425477,8.72512315 107.81045,8.72512315 C108.195424,8.72512315 108.538669,8.84562934 108.815823,9.08564325 C109.110245,9.34061101 109.265766,9.68249108 109.265766,10.0729064 L109.265766,14.4 C109.265766,14.7904153 109.110245,15.1322954 108.815823,15.3872632 C108.538669,15.6272771 108.195424,15.7477833 107.81045,15.7477833 C107.425477,15.7477833 107.082231,15.6272771 106.805078,15.3872632 C106.510656,15.1322954 106.355135,14.7904153 106.355135,14.4 L106.355135,13.5842365 L97.4102703,13.5842365 L97.4102703,20.8551724 L109.478739,20.8551724 C109.884828,20.8551724 110.239844,20.9734193 110.519607,21.2156925 C110.814029,21.4706603 110.96955,21.8125403 110.96955,22.2029557 C110.96955,22.5955929 110.806658,22.9414685 110.503762,23.206297 C110.216464,23.4574882 109.866814,23.5862069 109.478739,23.5862069 L95.8484685,23.5862069 C94.9768902,23.5862069 94.4286486,23.1041283 94.4286486,22.2738916 L94.4286486,3.68866995 L92.8668468,3.68866995 Z" id="Path"></path>
                            <path d="M125.629189,22.5931034 C125.629189,22.9911951 125.461208,23.3373879 125.148541,23.5912331 C124.862588,23.8233897 124.518869,23.9408867 124.138378,23.9408867 C123.757888,23.9408867 123.414169,23.8233897 123.128216,23.5912331 C122.815549,23.3373879 122.647568,22.9911951 122.647568,22.5931034 L122.647568,3.68866995 L116.684324,3.68866995 L116.684324,5.24926108 C116.684324,5.64735277 116.516343,5.99354555 116.203676,6.2473907 C115.917723,6.47954734 115.574004,6.59704433 115.193514,6.59704433 C114.813023,6.59704433 114.469304,6.47954734 114.183351,6.2473907 C113.870684,5.99354555 113.702703,5.64735277 113.702703,5.24926108 L113.702703,2.3408867 C113.702703,1.94824949 113.865594,1.6023739 114.16849,1.3375454 C114.453276,1.08855101 114.790177,0.957635468 115.158018,0.957635468 L133.083243,0.957635468 C133.471318,0.957635468 133.820969,1.08635421 134.108267,1.3375454 C134.411163,1.6023739 134.574054,1.94824949 134.574054,2.3408867 L134.574054,5.24926108 C134.574054,5.64735277 134.406073,5.99354555 134.093406,6.2473907 C133.807453,6.47954734 133.463734,6.59704433 133.083243,6.59704433 C132.702753,6.59704433 132.359034,6.47954734 132.073081,6.2473907 C131.760414,5.99354555 131.592432,5.64735277 131.592432,5.24926108 L131.592432,3.68866995 L125.629189,3.68866995 L125.629189,22.5931034 Z" id="Path"></path>
                        </g>
                    </g>
                    <g id="Page-1">
                        <g id="Group">
                            <g id="Group-2" transform="translate(11.612903, 10.967742)" fill="url(#linearGradient-1)">
                                <path d="M3.39883435,0.0541280166 L6.40652604,3.1453667 C6.89680937,3.64926901 6.89680937,4.46625608 6.40652604,4.97015839 L3.39883435,8.06139707 L0.39114266,4.97015839 C-0.0991406702,4.46625608 -0.0991406702,3.64926901 0.39114266,3.1453667 L3.39883435,0.0541280166 Z M3.39883435,2.99012667 L2.58198762,3.82966358 C2.45941679,3.95563916 2.45941679,4.15988593 2.58198762,4.2858615 L3.39883435,5.12539842 L4.21568107,4.2858615 C4.33825191,4.15988593 4.33825191,3.95563916 4.21568107,3.82966358 L3.39883435,2.99012667 Z" id="Combined-Shape"></path>
                            </g>
                            <path d="M3.10300326,5.36247215 L15.4087716,5.36247215 C20.5687589,5.36247215 24.7517552,9.6616627 24.7517552,14.964983 C24.7517552,20.2683033 20.5687589,24.5674939 15.4087716,24.5674939 L3.10300326,24.5674939 C1.3949639,24.5674939 0.0103244161,23.1443922 0.0103244161,21.3889073 L0.0103244161,8.54105873 C0.0103244161,6.78557383 1.3949639,5.36247215 3.10300326,5.36247215 Z M3.33839994,8.86363938 L3.33839994,21.0663267 C3.33839994,21.1108658 3.37353017,21.1469718 3.41686551,21.1469718 L15.4087716,21.1469718 C18.7307136,21.1469718 21.4236796,18.3792012 21.4236796,14.964983 C21.4236796,11.5507649 18.7307136,8.78299422 15.4087716,8.78299422 L3.41686551,8.78299422 C3.37353017,8.78299422 3.33839994,8.81910029 3.33839994,8.86363938 Z" id="Rectangle" fill="url(#linearGradient-2)" fill-rule="nonzero"></path>
                            <path d="M15.4133208,26.3051783 C21.507067,26.3051783 26.4470243,21.2279999 26.4470243,14.964983 C26.4470243,8.70196613 21.507067,3.62478778 15.4133208,3.62478778 L8.72826137,3.62478778 C8.64729272,3.62478778 8.58165466,3.69224911 8.58165466,3.77546689 L8.58165466,19.0556027 C8.58165466,19.2782982 8.40600352,19.4588285 8.18932685,19.4588285 L5.44716193,19.4588285 C5.23048527,19.4588285 5.05483412,19.2782982 5.05483412,19.0556027 L5.05483412,3.38285229 C5.05483412,1.51455456 6.52845477,-3.5813646e-17 8.34625797,0 L15.4133208,3.5813646e-16 C23.4548762,-1.18185032e-15 29.9738448,6.70005112 29.9738448,14.964983 C29.9738448,23.2299149 23.4548762,29.929966 15.4133208,29.929966 L8.34625797,29.929966 C6.52845477,29.929966 5.05483412,28.4154115 5.05483412,26.5471138 L5.05483412,26.3051783 L15.4133208,26.3051783 Z" id="Path" fill="url(#linearGradient-2)" fill-rule="nonzero"></path>
                        </g>
                        <polygon id="Rectangle-2" fill="#3378D4" points="5.05475138 5.36290323 8.58177847 5.36290323 8.58177847 8.7830645 5.05475138 8.7830645"></polygon>
                    </g>
                </g>
            </g>
        </g>
    </g>
</svg>