<?xml version="1.0" encoding="UTF-8"?>
<svg width="32px" height="32px" viewBox="0 0 32 32" version="1.1" xmlns="http://www.w3.org/2000/svg" xmlns:xlink="http://www.w3.org/1999/xlink">
    <!-- Generator: Sketch 51 (57462) - http://www.bohemiancoding.com/sketch -->
    <title>首页-电报-icon</title>
    <desc>Created with Sketch.</desc>
    <defs></defs>
    <g id="Page-1" stroke="none" stroke-width="1" fill="none" fill-rule="evenodd">
        <g id="3-5-DApp-详情" transform="translate(-1476.000000, -1253.000000)" fill="#FFFFFF">
            <rect x="0" y="0" width="1920" height="1390"></rect>
            <g id="底部" transform="translate(0.000000, 1190.000000)" fill-rule="nonzero">
                <g id="Group-15" transform="translate(360.000000, 40.000000)">
                    <g id="icon" transform="translate(1012.000000, 23.000000)">
                        <g id="首页-电报-icon" transform="translate(104.000000, 0.000000)">
                            <path d="M5.1277704,1 C3.65310186,1 3.09403919,1.10795998 2.51790745,1.41607861 C2.04032407,1.67149299 1.67149299,2.04032407 1.41607861,2.51790745 C1.10795998,3.09403919 1,3.65310186 1,5.1277704 L1,26.8722296 C1,28.3468981 1.10795998,28.9059608 1.41607861,29.4820925 C1.67149299,29.9596759 2.04032407,30.328507 2.51790745,30.5839214 C3.09403919,30.89204 3.65310186,31 5.1277704,31 L26.8722296,31 C28.3468981,31 28.9059608,30.89204 29.4820925,30.5839214 C29.9596759,30.328507 30.328507,29.9596759 30.5839214,29.4820925 C30.89204,28.9059608 31,28.3468981 31,26.8722296 L31,5.1277704 C31,3.65310186 30.89204,3.09403919 30.5839214,2.51790745 C30.328507,2.04032407 29.9596759,1.67149299 29.4820925,1.41607861 C28.9059608,1.10795998 28.3468981,1 26.8722296,1 L5.1277704,1 Z M5.1277704,-2.07168062e-16 L26.8722296,2.07168062e-16 C28.6552671,-1.2037061e-16 29.3018396,0.185651222 29.9536914,0.534265408 C30.6055433,0.882879593 31.1171204,1.39445674 31.4657346,2.04630859 C31.8143488,2.69816044 32,3.34473292 32,5.1277704 L32,26.8722296 C32,28.6552671 31.8143488,29.3018396 31.4657346,29.9536914 C31.1171204,30.6055433 30.6055433,31.1171204 29.9536914,31.4657346 C29.3018396,31.8143488 28.6552671,32 26.8722296,32 L5.1277704,32 C3.34473292,32 2.69816044,31.8143488 2.04630859,31.4657346 C1.39445674,31.1171204 0.882879593,30.6055433 0.534265408,29.9536914 C0.185651222,29.3018396 8.02470732e-17,28.6552671 -1.38112041e-16,26.8722296 L1.38112041e-16,5.1277704 C-8.02470732e-17,3.34473292 0.185651222,2.69816044 0.534265408,2.04630859 C0.882879593,1.39445674 1.39445674,0.882879593 2.04630859,0.534265408 C2.69816044,0.185651222 3.34473292,1.2037061e-16 5.1277704,-2.07168062e-16 Z" id="Rectangle-20"></path>
                            <g id="Telegram" transform="translate(4.571429, 8.000000)">
                                <path d="M18.9126844,0.272589343 C19.1799945,0.162227706 19.4630984,0.101002346 19.7454127,0.0413368674 C19.9981135,0.0136489657 20.3163587,0.0791640009 20.4423142,0.321725619 C20.496408,0.465234744 20.5508966,0.620053012 20.5303647,0.77526125 C20.1339402,3.39508272 19.5424623,5.98487646 19.0398245,8.58675928 C18.4787497,11.322402 17.8912202,14.052975 17.2594681,16.7730189 C17.1173238,17.1044938 16.838958,17.391902 16.479649,17.4866648 C16.1073101,17.5611492 15.6907486,17.4921244 15.4009323,17.2363038 C13.9321086,16.1046096 12.4332767,15.0091826 10.9727447,13.8673491 C10.0235372,13.1509734 9.08025226,12.4252384 8.1223581,11.7197819 C8.09708802,11.5832922 8.2633178,11.5232368 8.33320537,11.428084 C11.1476611,8.91745422 13.9723828,6.41891357 16.7911818,3.91335344 C16.8938415,3.85134814 16.9672827,3.75385553 17.0012394,3.63998416 C17.0892898,3.46683728 16.8630436,3.24572403 16.6885221,3.33073759 C16.4808336,3.41497121 16.2944667,3.54132163 16.1069153,3.66143253 C12.8853743,5.69044877 9.66027968,7.71634525 6.44071291,9.74809128 C6.07390184,9.94541632 5.75486701,10.2289248 5.3667343,10.3841331 C3.85961064,9.89900984 2.35683027,9.39906773 0.851285988,8.90731499 C0.53185632,8.79188374 0.194658624,8.61522713 0.0533040855,8.29116169 C-0.0509350151,7.92731926 0.195843159,7.56854645 0.524749109,7.42113762 C2.71495476,6.4738994 4.91542638,5.54966944 7.1316918,4.66287664 C11.0284179,3.12132346 14.9630491,1.67648295 18.9126844,0.272589343 Z" id="Shape"></path>
                                <path d="M16.6885221,3.33073759 C16.8630436,3.24572403 17.0892898,3.46683728 17.0012394,3.63998416 C16.9672827,3.75385553 16.8938415,3.85134814 16.7911818,3.91335344 C13.9723828,6.41891357 11.1476611,8.91745422 8.33320537,11.428084 C8.2633178,11.5232368 8.09708802,11.5832922 8.1223581,11.7197819 C8.10024678,11.7646285 8.06668495,11.8051854 8.05562928,11.8551016 C7.85267891,13.420053 7.69197697,14.9931938 7.46652043,16.5538555 C7.21618865,16.3479511 7.10879079,16.0176462 7.02034549,15.7173689 C6.48572525,14.0092984 5.95110502,12.3012278 5.41727447,10.5931572 C5.39160954,10.5256923 5.35765287,10.4578375 5.3667343,10.3841331 C5.75486701,10.2289248 6.07390184,9.94541632 6.44071291,9.74809128 C9.66027968,7.71634525 12.8853743,5.69044877 16.1069153,3.66143253 C16.2944667,3.54132163 16.4808336,3.41497121 16.6885221,3.33073759 Z" id="Shape"></path>
                                <path d="M8.05562928,11.8551016 C8.06668495,11.8051854 8.10024678,11.7646285 8.1223581,11.7197819 C9.08025226,12.4252384 10.0235372,13.1509734 10.9727447,13.8673491 C10.0859227,14.6714682 9.21686866,15.4954757 8.3308363,16.3003747 C8.12749109,16.5324072 7.76225939,16.8085062 7.45980806,16.5764738 L7.46652043,16.5538555 C7.69197697,14.9931938 7.85267891,13.420053 8.05562928,11.8551016 Z" id="Shape"></path>
                            </g>
                        </g>
                    </g>
                </g>
            </g>
        </g>
    </g>
</svg>