<?xml version="1.0" encoding="UTF-8"?>
<svg width="14px" height="14px" viewBox="0 0 14 14" version="1.1" xmlns="http://www.w3.org/2000/svg" xmlns:xlink="http://www.w3.org/1999/xlink">
    <!-- Generator: Sketch 48 (47235) - http://www.bohemiancoding.com/sketch -->
    <title>搜索IOCN</title>
    <desc>Created with Sketch.</desc>
    <defs></defs>
    <g id="01-00-入口" stroke="none" stroke-width="1" fill="none" fill-rule="evenodd" transform="translate(-186.000000, -287.000000)">
        <g id="资产列表" transform="translate(30.000000, 222.000000)" fill="#C8D2EB" fill-rule="nonzero">
            <g id="搜索框" transform="translate(20.000000, 56.000000)">
                <g id="Group-5" transform="translate(136.000000, 9.000000)">
                    <g id="搜索IOCN">
                        <path d="M6,11 C8.76142375,11 11,8.76142375 11,6 C11,3.23857625 8.76142375,1 6,1 C3.23857625,1 1,3.23857625 1,6 C1,8.76142375 3.23857625,11 6,11 Z M6,12 C2.6862915,12 0,9.3137085 0,6 C0,2.6862915 2.6862915,0 6,0 C9.3137085,0 12,2.6862915 12,6 C12,9.3137085 9.3137085,12 6,12 Z" id="Oval-2"></path>
                        <path d="M10.7493733,11.883512 C10.4512291,11.5959657 10.4426378,11.1211697 10.7301841,10.8230254 C11.0177304,10.5248812 11.4925264,10.5162899 11.7906707,10.8038362 L13.5741669,12.5239357 C13.8723111,12.811482 13.8809024,13.2862781 13.5933561,13.5844223 C13.3058098,13.8825665 12.8310138,13.8911579 12.5328695,13.6036115 L10.7493733,11.883512 Z" id="Path-3"></path>
                    </g>
                </g>
            </g>
        </g>
    </g>
</svg>