<?xml version="1.0" encoding="UTF-8"?>
<svg width="32px" height="32px" viewBox="0 0 32 32" version="1.1" xmlns="http://www.w3.org/2000/svg" xmlns:xlink="http://www.w3.org/1999/xlink">
    <!-- Generator: Sketch 48 (47235) - http://www.bohemiancoding.com/sketch -->
    <title>电报</title>
    <desc>Created with Sketch.</desc>
    <defs></defs>
    <g id="01-02-我的好友" stroke="none" stroke-width="1" fill="none" fill-rule="evenodd" transform="translate(-1202.000000, -1955.000000)">
        <g id="底部" transform="translate(0.000000, 1903.000000)">
            <g id="Group-15" transform="translate(633.000000, 30.000000)">
                <g id="light-icon" transform="translate(465.000000, 22.000000)">
                    <g id="电报" transform="translate(104.000000, 0.000000)">
                        <rect id="Rectangle-20" fill="#2FA5DD" x="0" y="0" width="32" height="32" rx="4"></rect>
                        <g id="Telegram" transform="translate(4.571429, 8.000000)" fill-rule="nonzero">
                            <path d="M18.9126844,0.272589343 C19.1799945,0.162227706 19.4630984,0.101002346 19.7454127,0.0413368674 C19.9981135,0.0136489657 20.3163587,0.0791640009 20.4423142,0.321725619 C20.496408,0.465234744 20.5508966,0.620053012 20.5303647,0.77526125 C20.1339402,3.39508272 19.5424623,5.98487646 19.0398245,8.58675928 C18.4787497,11.322402 17.8912202,14.052975 17.2594681,16.7730189 C17.1173238,17.1044938 16.838958,17.391902 16.479649,17.4866648 C16.1073101,17.5611492 15.6907486,17.4921244 15.4009323,17.2363038 C13.9321086,16.1046096 12.4332767,15.0091826 10.9727447,13.8673491 C10.0235372,13.1509734 9.08025226,12.4252384 8.1223581,11.7197819 C8.09708802,11.5832922 8.2633178,11.5232368 8.33320537,11.428084 C11.1476611,8.91745422 13.9723828,6.41891357 16.7911818,3.91335344 C16.8938415,3.85134814 16.9672827,3.75385553 17.0012394,3.63998416 C17.0892898,3.46683728 16.8630436,3.24572403 16.6885221,3.33073759 C16.4808336,3.41497121 16.2944667,3.54132163 16.1069153,3.66143253 C12.8853743,5.69044877 9.66027968,7.71634525 6.44071291,9.74809128 C6.07390184,9.94541632 5.75486701,10.2289248 5.3667343,10.3841331 C3.85961064,9.89900984 2.35683027,9.39906773 0.851285988,8.90731499 C0.53185632,8.79188374 0.194658624,8.61522713 0.0533040855,8.29116169 C-0.0509350151,7.92731926 0.195843159,7.56854645 0.524749109,7.42113762 C2.71495476,6.4738994 4.91542638,5.54966944 7.1316918,4.66287664 C11.0284179,3.12132346 14.9630491,1.67648295 18.9126844,0.272589343 Z" id="Shape" fill="#FFFFFF"></path>
                            <path d="M16.6885221,3.33073759 C16.8630436,3.24572403 17.0892898,3.46683728 17.0012394,3.63998416 C16.9672827,3.75385553 16.8938415,3.85134814 16.7911818,3.91335344 C13.9723828,6.41891357 11.1476611,8.91745422 8.33320537,11.428084 C8.2633178,11.5232368 8.09708802,11.5832922 8.1223581,11.7197819 C8.10024678,11.7646285 8.06668495,11.8051854 8.05562928,11.8551016 C7.85267891,13.420053 7.69197697,14.9931938 7.46652043,16.5538555 C7.21618865,16.3479511 7.10879079,16.0176462 7.02034549,15.7173689 C6.48572525,14.0092984 5.95110502,12.3012278 5.41727447,10.5931572 C5.39160954,10.5256923 5.35765287,10.4578375 5.3667343,10.3841331 C5.75486701,10.2289248 6.07390184,9.94541632 6.44071291,9.74809128 C9.66027968,7.71634525 12.8853743,5.69044877 16.1069153,3.66143253 C16.2944667,3.54132163 16.4808336,3.41497121 16.6885221,3.33073759 Z" id="Shape" fill="#CBE0EE"></path>
                            <path d="M8.05562928,11.8551016 C8.06668495,11.8051854 8.10024678,11.7646285 8.1223581,11.7197819 C9.08025226,12.4252384 10.0235372,13.1509734 10.9727447,13.8673491 C10.0859227,14.6714682 9.21686866,15.4954757 8.3308363,16.3003747 C8.12749109,16.5324072 7.76225939,16.8085062 7.45980806,16.5764738 L7.46652043,16.5538555 C7.69197697,14.9931938 7.85267891,13.420053 8.05562928,11.8551016 Z" id="Shape" fill="#A8C6DF"></path>
                        </g>
                    </g>
                </g>
            </g>
        </g>
    </g>
</svg>