<?xml version="1.0" encoding="UTF-8"?>
<svg width="32px" height="32px" viewBox="0 0 32 32" version="1.1" xmlns="http://www.w3.org/2000/svg" xmlns:xlink="http://www.w3.org/1999/xlink">
    <!-- Generator: Sketch 48 (47235) - http://www.bohemiancoding.com/sketch -->
    <title>twitter</title>
    <desc>Created with Sketch.</desc>
    <defs></defs>
    <g id="01-02-我的好友" stroke="none" stroke-width="1" fill="none" fill-rule="evenodd" transform="translate(-1150.000000, -1955.000000)">
        <g id="底部" transform="translate(0.000000, 1903.000000)">
            <g id="Group-15" transform="translate(633.000000, 30.000000)">
                <g id="light-icon" transform="translate(465.000000, 22.000000)">
                    <g id="twitter" transform="translate(52.000000, 0.000000)">
                        <rect id="Rectangle-22" fill="#33AFFC" x="0" y="0" width="32" height="32" rx="4"></rect>
                        <path d="M24.4571429,12.1343245 C24.4571429,19.5474988 19.6571429,24.8757179 12.5714286,25.1073796 C9.6,25.3390413 7.54285714,24.4123945 5.71428571,23.0224243 C7.77142857,23.254086 10.5142857,22.5591009 11.8857143,21.1691307 C9.82857143,21.1691307 8.68571429,20.0108222 8,18.3891903 L9.82857143,18.3891903 C8,17.6942052 6.62857143,16.304235 6.62857143,13.9876181 C7.08571429,14.2192798 7.54285714,14.4509414 8.45714286,14.4509414 C6.85714286,13.5242947 5.94285714,10.5126926 7.08571429,8.65939897 C9.14285714,10.976016 11.6571429,13.0609713 15.7714286,13.292633 C14.6285714,8.65939897 20.5714286,6.34278198 23.0857143,9.35438407 C24.2285714,9.12272237 24.9142857,8.65939897 25.8285714,8.19607557 C25.6,9.35438407 24.9142857,10.0493692 24,10.5126926 C24.9142857,10.5126926 25.6,10.2810309 26.2857143,9.81770747 C26.0571429,10.7443543 25.1428571,11.6710011 24.4571429,12.1343245 Z" id="Path" fill="#FFFFFF"></path>
                    </g>
                </g>
            </g>
        </g>
    </g>
</svg>