<?xml version="1.0" encoding="UTF-8"?>
<svg width="14px" height="14px" viewBox="0 0 14 14" version="1.1" xmlns="http://www.w3.org/2000/svg" xmlns:xlink="http://www.w3.org/1999/xlink">
    <!-- Generator: Sketch 48 (47235) - http://www.bohemiancoding.com/sketch -->
    <title>添加ICON</title>
    <desc>Created with Sketch.</desc>
    <defs>
        <rect id="path-1" x="2.5" y="6.25" width="9" height="1.5" rx="0.75"></rect>
    </defs>
    <g id="01-00-入口" stroke="none" stroke-width="1" fill="none" fill-rule="evenodd" transform="translate(-277.000000, -330.000000)">
        <g id="资产列表" transform="translate(30.000000, 222.000000)">
            <g id="添加资产按钮" transform="translate(230.000000, 100.000000)">
                <g id="Group-8" transform="translate(17.000000, 8.000000)">
                    <g id="添加ICON">
                        <path d="M7,13 C10.3137085,13 13,10.3137085 13,7 C13,3.6862915 10.3137085,1 7,1 C3.6862915,1 1,3.6862915 1,7 C1,10.3137085 3.6862915,13 7,13 Z M7,14 C3.13400675,14 0,10.8659932 0,7 C0,3.13400675 3.13400675,0 7,0 C10.8659932,0 14,3.13400675 14,7 C14,10.8659932 10.8659932,14 7,14 Z" id="Oval-3" fill="#FFFFFF" fill-rule="nonzero"></path>
                        <g id="Rectangle-15">
                            <use fill="#D8D8D8" fill-rule="evenodd" xlink:href="#path-1"></use>
                            <rect stroke="#FFFFFF" stroke-width="1" x="3" y="6.75" width="8" height="1" rx="0.5"></rect>
                        </g>
                        <rect id="Rectangle-14" stroke="#FFFFFF" x="6.75" y="3" width="1" height="8" rx="0.5"></rect>
                    </g>
                </g>
            </g>
        </g>
    </g>
</svg>