<?xml version="1.0" encoding="UTF-8"?>
<svg width="174px" height="313px" viewBox="0 0 174 313" version="1.1" xmlns="http://www.w3.org/2000/svg" xmlns:xlink="http://www.w3.org/1999/xlink">
    <!-- Generator: Sketch 51 (57462) - http://www.bohemiancoding.com/sketch -->
    <title>h5</title>
    <desc>Created with Sketch.</desc>
    <defs>
        <linearGradient x1="46932%" y1="26347.7927%" x2="75385%" y2="5584.47443%" id="linearGradient-1">
            <stop stop-color="#808080" stop-opacity="0.25" offset="0%"></stop>
            <stop stop-color="#808080" stop-opacity="0.12" offset="54%"></stop>
            <stop stop-color="#808080" stop-opacity="0.1" offset="100%"></stop>
        </linearGradient>
    </defs>
    <g id="Page-1" stroke="none" stroke-width="1" fill="none" fill-rule="evenodd">
        <g id="03-00-00-管理中心" transform="translate(-680.000000, -221.000000)">
            <rect fill="#F2F7FA" x="0" y="0" width="1920" height="960"></rect>
            <g id="Group-4" transform="translate(680.000000, 221.000000)" fill-rule="nonzero">
                <g id="h5">
                    <path d="M166.573757,0.00480798771 L6.75331492,0.394254992 C5.01194025,0.398076267 3.34340578,1.09369702 2.11477221,2.32808772 C0.886138629,3.56247843 0.198049858,5.23452358 0.201878453,6.97639017 L0.903646409,305.97553 C0.908719944,307.721583 1.60866633,309.393746 2.84881744,310.622519 C4.08896856,311.851292 5.76723302,312.535521 7.51276243,312.524009 L167.333204,312.134562 C169.074579,312.130741 170.743114,311.43512 171.971747,310.200729 C173.200381,308.966339 173.888469,307.294294 173.884641,305.552427 L173.15884,6.54847926 C173.145589,2.92310607 170.198115,-0.00583233959 166.573757,0.00480798771 Z" id="Shape" fill="url(#linearGradient-1)"></path>
                    <rect id="Rectangle-path" fill="#FCA958" transform="translate(86.916629, 155.971985) rotate(-0.140000) translate(-86.916629, -155.971985) " x="2.77417007" y="4.05159334" width="168.284917" height="303.840783" rx="6.5472"></rect>
                    <path d="M128.899409,11.6161146 C127.910611,18.2752243 122.214256,23.2178149 115.484105,23.2562529 L57.3527235,23.3908765 C50.6280819,23.3788305 44.9154054,18.4665817 43.89416,11.8180501 L13.1076959,11.8949779 C11.4122139,11.8987991 9.78769242,12.5761838 8.59150986,13.7781144 C7.39532731,14.9800449 6.72546938,16.6080646 6.72929809,18.3040255 L7.39741964,294.123857 C7.4012358,295.821489 8.07974947,297.447931 9.28342176,298.644728 C10.4870941,299.841525 12.1171255,300.510443 13.8142705,300.504056 L160.897143,300.148265 C162.592625,300.144444 164.217147,299.467059 165.413329,298.265129 C166.609512,297.063198 167.27937,295.435179 167.275541,293.739218 L166.60742,17.9193865 C166.6036,16.2234256 165.926406,14.5984452 164.724815,13.4019247 C163.523224,12.2054042 161.895664,11.535357 160.200182,11.5391868 L128.899409,11.6161146 Z" id="e707708a-3328-453c-98e2-ff60f305110c" fill="#FFFFFF"></path>
                    <rect id="Rectangle-path" fill="#FFFFFF" transform="translate(85.097646, 16.840091) rotate(-0.860000) translate(-85.097646, -16.840091) " x="66.3469827" y="15.6669418" width="37.501326" height="2.346298" rx="0.96"></rect>
                    <ellipse id="Oval" fill="#FFFFFF" transform="translate(111.981808, 15.853689) rotate(-0.860000) translate(-111.981808, -15.853689) " cx="111.981808" cy="15.853689" rx="1.40834254" ry="1.4087404"></ellipse>
                    <path d="M91.4101382,128.882353 L60.9912601,128.882353 L66.8795796,186.563543 L91.4101382,192.923274 L115.940697,186.563543 L121.829016,128.882353 L91.4101382,128.882353 Z M109.967143,148.079886 L81.046658,148.079886 L81.5277319,154.774631 L109.002416,154.774631 L107.073031,176.639669 L91.1644777,180.656969 L75.7420877,176.639669 L74.7774291,165.484207 L82.4898796,165.484207 L82.9709534,170.839029 L91.1645456,173.070588 L99.8417225,170.839029 L100.322796,161.915194 L74.2988661,161.915194 L72.3694811,140.941792 L110.448217,140.941792 L109.967143,148.079886 Z" id="Shape" fill="#FF952D"></path>
                </g>
            </g>
        </g>
    </g>
</svg>