<?xml version="1.0" encoding="UTF-8"?>
<svg width="47px" height="45px" viewBox="0 0 47 45" version="1.1" xmlns="http://www.w3.org/2000/svg" xmlns:xlink="http://www.w3.org/1999/xlink">
    <!-- Generator: Sketch 51 (57462) - http://www.bohemiancoding.com/sketch -->
    <title>Combined Shape</title>
    <desc>Created with Sketch.</desc>
    <defs></defs>
    <g id="Page-1" stroke="none" stroke-width="1" fill="none" fill-rule="evenodd">
        <g id="02-02-01-实名认证-悬浮" transform="translate(-699.000000, -463.000000)">
            <rect fill="#F2F7FA" x="0" y="0" width="1920" height="1109"></rect>
            <g id="护照正面" transform="translate(598.000000, 410.000000)" fill="#2E406B">
                <g id="Group-6-Copy-3" transform="translate(101.000000, 53.000000)">
                    <path d="M24.5,21.5 L24.5,13.5 C24.5,12.9477153 24.0522847,12.5 23.5,12.5 C22.9477153,12.5 22.5,12.9477153 22.5,13.5 L22.5,21.5 L14.5,21.5 C13.9477153,21.5 13.5,21.9477153 13.5,22.5 C13.5,23.0522847 13.9477153,23.5 14.5,23.5 L22.5,23.5 L22.5,31.5 C22.5,32.0522847 22.9477153,32.5 23.5,32.5 C24.0522847,32.5 24.5,32.0522847 24.5,31.5 L24.5,23.5 L32.5,23.5 C33.0522847,23.5 33.5,23.0522847 33.5,22.5 C33.5,21.9477153 33.0522847,21.5 32.5,21.5 L24.5,21.5 Z M22.5,0 L24.5,0 C36.9264069,-2.28269391e-15 47,10.0735931 47,22.5 C47,34.9264069 36.9264069,45 24.5,45 L22.5,45 C10.0735931,45 1.52179594e-15,34.9264069 0,22.5 C-1.52179594e-15,10.0735931 10.0735931,2.28269391e-15 22.5,0 Z" id="Combined-Shape"></path>
                </g>
            </g>
        </g>
    </g>
</svg>