<?xml version="1.0" encoding="UTF-8"?>
<svg width="56px" height="51px" viewBox="0 0 56 51" version="1.1" xmlns="http://www.w3.org/2000/svg" xmlns:xlink="http://www.w3.org/1999/xlink">
    <!-- Generator: Sketch 51 (57462) - http://www.bohemiancoding.com/sketch -->
    <title>下载idc</title>
    <desc>Created with Sketch.</desc>
    <defs></defs>
    <g id="Page-1" stroke="none" stroke-width="1" fill="none" fill-rule="evenodd">
        <g id="01-00-00-首页" transform="translate(-386.000000, -749.000000)">
            <rect fill="#F2F7FA" x="0" y="0" width="1920" height="1721"></rect>
            <g id="下载idc" transform="translate(385.000000, 749.000000)">
                <path d="M1.09834702,33.5248639 C0.857096313,33.0280575 1.06426509,32.4297441 1.56107144,32.1884934 C2.05787778,31.9472427 2.65619123,32.1544114 2.89744194,32.6512178 C7.71346662,42.5688329 17.7780137,49 29,49 C40.2550783,49 50.3441633,42.5307011 55.1427206,32.5681739 C55.3823827,32.0705993 55.9800312,31.8615198 56.4776058,32.101182 C56.9751805,32.3408441 57.1842599,32.9384926 56.9445978,33.4360672 C51.8157416,44.0843446 41.0305489,51 29,51 C17.0048401,51 6.24584905,44.1250886 1.09834702,33.5248639 Z" id="Oval" fill="#7E8EB5" fill-rule="nonzero"></path>
                <path d="M30,32.3137085 L41.0208153,21.2928932 C41.4113396,20.9023689 42.0445046,20.9023689 42.4350288,21.2928932 C42.8255531,21.6834175 42.8255531,22.3165825 42.4350288,22.7071068 L29.7071068,35.4350288 C29.3165825,35.8255531 28.6834175,35.8255531 28.2928932,35.4350288 L15.5649712,22.7071068 C15.1744469,22.3165825 15.1744469,21.6834175 15.5649712,21.2928932 C15.9554954,20.9023689 16.5886604,20.9023689 16.9791847,21.2928932 L28,32.3137085 L28,1 C28,0.44771525 28.4477153,1.01453063e-16 29,0 C29.5522847,-1.01453063e-16 30,0.44771525 30,1 L30,32.3137085 Z" id="Combined-Shape" fill="#333333"></path>
            </g>
        </g>
    </g>
</svg>