<?xml version="1.0" encoding="UTF-8"?>
<svg width="16px" height="16px" viewBox="0 0 16 16" version="1.1" xmlns="http://www.w3.org/2000/svg" xmlns:xlink="http://www.w3.org/1999/xlink">
    <!-- Generator: Sketch 51 (57462) - http://www.bohemiancoding.com/sketch -->
    <title>Shape</title>
    <desc>Created with Sketch.</desc>
    <defs></defs>
    <g id="Symbols" stroke="none" stroke-width="1" fill="none" fill-rule="evenodd">
        <g id="导航栏" transform="translate(-1661.000000, -25.000000)" fill="#838597" fill-rule="nonzero">
            <g id="公告">
                <g transform="translate(1661.000000, 25.000000)">
                    <path d="M0.780190476,5.49484969 L0.780190476,10.5051503 C0.780190476,10.9589637 1.13283657,11.3368635 1.56818286,11.3368635 L3.11296,11.3368635 C3.555328,11.3368635 4.1865021,11.5545939 4.538368,11.8232114 L8.7248701,15.0215951 C9.08375771,15.2952179 9.36228571,15.1367169 9.36228571,14.6795666 L9.36228571,1.3204334 C9.36228571,0.863283096 9.076736,0.709787373 8.7248701,0.978404888 L4.538368,4.17678859 C4.17948038,4.45041141 3.54830629,4.66313646 3.11296,4.66313646 L1.56740267,4.66313646 C1.35954936,4.6606866 1.15940899,4.7472038 1.01154897,4.90342234 C0.863688937,5.05964089 0.780386131,5.27258988 0.780190476,5.49484969 Z M0,5.49484969 C0,4.57137271 0.698270476,3.82892057 1.56818286,3.82892057 L3.11296,3.82892057 C3.38914743,3.82892057 3.86116267,3.66875112 4.08429714,3.49773686 L8.27157943,0.300187373 C9.13603048,-0.360511609 10.1424762,0.180060285 10.1424762,1.3204334 L10.1424762,14.6795666 C10.1424762,15.8199397 9.14383238,16.3663511 8.27157943,15.6998126 L4.08429714,12.5022631 C3.86350324,12.3329173 3.38992762,12.1710794 3.11374019,12.1710794 L1.56740267,12.1710794 C0.705217108,12.1715524 0.00472301522,11.4270254 0,10.5051503 L0,5.49484969 Z M12.2076404,11.0365458 C12.0333465,11.1722293 11.7891835,11.1311452 11.6622872,10.9447821 C11.5353909,10.7584189 11.5738143,10.4973486 11.7481082,10.3616652 C12.4555219,9.8128127 12.8739042,8.9345473 12.8731429,8 C12.8731429,7.03064114 12.4284343,6.14220122 11.6973958,5.5999609 C11.5203011,5.46865435 11.4762889,5.2087045 11.5990918,5.01934664 C11.7218947,4.82998878 11.9650097,4.78292889 12.1421044,4.91423544 C13.0891886,5.61506916 13.6540587,6.76847222 13.6533333,8 C13.6543105,9.20139677 13.1167381,10.3305182 12.2076404,11.0365458 Z M13.0096762,13.4557719 C12.8218093,13.5686494 12.5839339,13.4973126 12.4783665,13.2964367 C12.3727991,13.0955607 12.439516,12.8412132 12.6273829,12.7283356 C14.2257412,11.7682832 15.2147186,9.96023304 15.2137143,8 C15.2145431,6.03345432 14.2190743,4.22071535 12.6125592,3.2633222 C12.4244769,3.15090537 12.3572361,2.89674463 12.4623726,2.69563829 C12.5675091,2.49453196 12.8052099,2.42263491 12.9932922,2.53505173 C14.8464984,3.63991918 15.9947774,5.7312539 15.9939048,8 C15.9939048,10.2857515 14.8384427,12.3546069 13.0096762,13.4557719 Z" id="Shape"></path>
                </g>
            </g>
        </g>
    </g>
</svg>