<?xml version="1.0" encoding="UTF-8"?>
<svg width="294px" height="36px" viewBox="0 0 294 36" version="1.1" xmlns="http://www.w3.org/2000/svg" xmlns:xlink="http://www.w3.org/1999/xlink">
    <!-- Generator: Sketch 51 (57462) - http://www.bohemiancoding.com/sketch -->
    <title>导航栏顶部logo</title>
    <desc>Created with Sketch.</desc>
    <defs>
        <linearGradient x1="21.0466741%" y1="20.3949263%" x2="100%" y2="100%" id="linearGradient-1">
            <stop stop-color="#2868BB" offset="0%"></stop>
            <stop stop-color="#1B457A" offset="100%"></stop>
        </linearGradient>
        <linearGradient x1="50%" y1="0%" x2="50%" y2="100%" id="linearGradient-2">
            <stop stop-color="#2868BB" offset="0%"></stop>
            <stop stop-color="#1B457A" offset="100%"></stop>
        </linearGradient>
    </defs>
    <g id="Page-1" stroke="none" stroke-width="1" fill="none" fill-rule="evenodd">
        <g id="02-02-05-已上传状态-按钮悬浮" transform="translate(-30.000000, -15.000000)">
            <rect fill="#F2F7FA" x="0" y="0" width="1920" height="1108"></rect>
            <g id="导航栏">
                <g id="导航栏顶部logo" transform="translate(30.000000, 15.000000)">
                    <path d="M48,28 L48,6.01 L50.79,6.01 L50.79,28 L48,28 Z M56.79,28 L56.79,6.01 L62.31,6.01 C69.06,6.01 72.69,9.94 72.69,16.93 C72.69,23.89 69.06,28 62.43,28 L56.79,28 Z M59.58,25.72 L62.07,25.72 C67.26,25.72 69.81,22.48 69.81,16.93 C69.81,11.35 67.26,8.26 62.07,8.26 L59.58,8.26 L59.58,25.72 Z M85.71,28.39 C80.25,28.39 76.14,24.16 76.14,17.02 C76.14,9.91 80.31,5.59 85.89,5.59 C88.56,5.59 90.66,6.91 91.92,8.32 L90.42,10.12 C89.28,8.89 87.81,8.02 85.92,8.02 C81.75,8.02 78.99,11.44 78.99,16.93 C78.99,22.48 81.63,25.96 85.83,25.96 C87.93,25.96 89.52,25.03 90.93,23.5 L92.46,25.24 C90.72,27.25 88.56,28.39 85.71,28.39 Z M103.26,28 L103.26,6.01 L108.78,6.01 C115.53,6.01 119.16,9.94 119.16,16.93 C119.16,23.89 115.53,28 108.9,28 L103.26,28 Z M106.05,25.72 L108.54,25.72 C113.73,25.72 116.28,22.48 116.28,16.93 C116.28,11.35 113.73,8.26 108.54,8.26 L106.05,8.26 L106.05,25.72 Z M126.6,19.06 L133.26,19.06 L132.21,15.7 C131.4,13.21 130.71,10.81 129.99,8.26 L129.87,8.26 C129.18,10.84 128.46,13.21 127.68,15.7 L126.6,19.06 Z M136.05,28 L133.95,21.28 L125.91,21.28 L123.78,28 L120.96,28 L128.43,6.01 L131.52,6.01 L138.99,28 L136.05,28 Z M141.84,34.87 L141.84,11.71 L144.09,11.71 L144.33,13.57 L144.42,13.57 C145.89,12.37 147.72,11.29 149.61,11.29 C153.81,11.29 156.09,14.59 156.09,19.6 C156.09,25.18 152.76,28.39 149.01,28.39 C147.54,28.39 145.98,27.7 144.51,26.5 L144.57,29.35 L144.57,34.87 L141.84,34.87 Z M148.56,26.11 C151.26,26.11 153.24,23.68 153.24,19.63 C153.24,16.03 152.04,13.6 148.95,13.6 C147.57,13.6 146.16,14.38 144.57,15.85 L144.57,24.4 C146.04,25.66 147.48,26.11 148.56,26.11 Z M160.44,34.87 L160.44,11.71 L162.69,11.71 L162.93,13.57 L163.02,13.57 C164.49,12.37 166.32,11.29 168.21,11.29 C172.41,11.29 174.69,14.59 174.69,19.6 C174.69,25.18 171.36,28.39 167.61,28.39 C166.14,28.39 164.58,27.7 163.11,26.5 L163.17,29.35 L163.17,34.87 L160.44,34.87 Z M167.16,26.11 C169.86,26.11 171.84,23.68 171.84,19.63 C171.84,16.03 170.64,13.6 167.55,13.6 C166.17,13.6 164.76,14.38 163.17,15.85 L163.17,24.4 C164.64,25.66 166.08,26.11 167.16,26.11 Z M187.35,15.49 L195.69,15.49 L195.69,7 L187.35,7 L187.35,15.49 Z M204.63,15.49 L204.63,17.65 L197.97,17.65 L197.97,30.34 L195.69,30.34 L195.69,17.65 L187.26,17.65 C186.84,22.33 185.31,26.98 179.82,30.43 C179.4,29.92 178.59,29.14 178.05,28.78 C183.03,25.72 184.56,21.7 184.98,17.65 L177.96,17.65 L177.96,15.49 L185.07,15.49 C185.1,15.04 185.1,14.65 185.1,14.2 L185.1,7 L179.07,7 L179.07,4.87 L203.7,4.87 L203.7,7 L197.97,7 L197.97,15.49 L204.63,15.49 Z M216.09,6.85 L214.08,7.51 C213.81,6.4 213.12,4.69 212.55,3.43 L214.47,2.86 C215.1,4.12 215.79,5.77 216.09,6.85 Z M213.36,13.81 L219.6,13.81 C219.6,13.81 219.6,14.53 219.57,14.83 C219.36,24.64 219.15,27.94 218.4,28.99 C217.92,29.62 217.41,29.86 216.63,29.95 C215.88,30.04 214.68,30.04 213.42,29.95 C213.36,29.35 213.15,28.48 212.82,27.88 C214.05,28 215.16,28.03 215.64,28.03 C216.03,28.03 216.3,27.94 216.51,27.61 C217.02,26.95 217.23,24.07 217.41,15.85 L213.36,15.85 L213.36,16.06 C213.36,20.98 212.76,26.05 208.8,30.28 C208.41,29.8 207.69,29.2 207.15,28.84 C210.78,24.97 211.23,20.26 211.23,16.03 L211.23,9.82 L207.69,9.82 L207.69,7.75 L220.92,7.75 L220.92,9.82 L213.36,9.82 L213.36,13.81 Z M230.61,10.54 L225,10.54 C224.94,10.63 224.91,10.75 224.88,10.84 C225.51,14.35 226.41,17.56 227.73,20.29 C229.14,17.59 230.04,14.38 230.61,10.54 Z M235.02,10.54 L232.83,10.54 C232.08,15.37 230.85,19.3 228.99,22.54 C230.61,25.09 232.65,27.1 235.29,28.33 C234.78,28.78 234.09,29.62 233.73,30.25 C231.21,28.93 229.2,26.98 227.64,24.55 C225.84,26.92 223.5,28.84 220.53,30.37 C220.32,29.86 219.66,28.9 219.24,28.42 C222.36,26.98 224.7,25 226.44,22.48 C225.21,20.05 224.28,17.23 223.53,14.14 C222.9,15.52 222.15,16.75 221.37,17.86 C221.01,17.44 220.14,16.57 219.63,16.18 C222.06,13.03 223.71,8.02 224.64,2.89 L226.89,3.25 C226.53,5.02 226.14,6.79 225.66,8.47 L235.02,8.47 L235.02,10.54 Z M264.66,17.59 L264.66,19.78 L252.36,19.78 L252.36,30.28 L250.08,30.28 L250.08,19.78 L237.96,19.78 L237.96,17.59 L250.08,17.59 L250.08,7.12 L239.52,7.12 L239.52,4.93 L262.98,4.93 L262.98,7.12 L252.36,7.12 L252.36,17.59 L264.66,17.59 Z M241.62,9.19 L243.57,8.59 C244.8,10.75 246.03,13.57 246.42,15.34 L244.32,16.06 C243.9,14.29 242.76,11.38 241.62,9.19 Z M257.52,16.15 L255.63,15.52 C256.74,13.66 258.12,10.6 258.87,8.44 L261.21,9.1 C260.13,11.5 258.69,14.35 257.52,16.15 Z M288.48,19.87 L273.99,19.87 L273.99,26.5 L288.48,26.5 L288.48,19.87 Z M271.74,30.28 L271.74,17.74 L290.82,17.74 L290.82,30.22 L288.48,30.22 L288.48,28.66 L273.99,28.66 L273.99,30.28 L271.74,30.28 Z M284.22,7.45 L285.99,6.31 C288.9,8.86 292.35,12.52 293.91,15.01 L292.02,16.36 C291.57,15.58 290.94,14.71 290.19,13.78 C273.06,14.74 271.32,14.8 270.15,15.22 C270.06,14.74 269.67,13.63 269.43,13.03 C270.09,12.91 270.87,12.25 271.86,11.26 C272.94,10.3 276.42,6.52 278.76,2.8 L280.95,3.79 C278.58,7.03 275.91,10.12 273.27,12.61 L288.57,11.86 C287.19,10.3 285.66,8.74 284.22,7.45 Z" id="IDC-DApp开放平台" fill="#2E406B"></path>
                    <g id="Page-1">
                        <g id="Group">
                            <g id="Group-2" transform="translate(13.935484, 13.161290)" fill="url(#linearGradient-1)">
                                <path d="M4.07860122,0.0649536199 L7.68783124,3.77444004 C8.27617124,4.37912281 8.27617124,5.35950729 7.68783124,5.96419007 L4.07860122,9.67367648 L0.469371192,5.96419007 C-0.118968804,5.35950729 -0.118968804,4.37912281 0.469371192,3.77444004 L4.07860122,0.0649536199 Z M4.07860122,3.588152 L3.09838515,4.5955963 C2.95130015,4.74676699 2.95130015,4.99186311 3.09838515,5.14303381 L4.07860122,6.1504781 L5.05881729,5.14303381 C5.20590229,4.99186311 5.20590229,4.74676699 5.05881729,4.5955963 L4.07860122,3.588152 Z" id="Combined-Shape"></path>
                            </g>
                            <path d="M3.72360391,6.43496657 L18.4905259,6.43496657 C24.6825107,6.43496657 29.7021062,11.5939952 29.7021062,17.9579796 C29.7021062,24.321964 24.6825107,29.4809927 18.4905259,29.4809927 L3.72360391,29.4809927 C1.67395668,29.4809927 0.0123892993,27.7732707 0.0123892993,25.6666888 L0.0123892993,10.2492705 C0.0123892993,8.1426886 1.67395668,6.43496657 3.72360391,6.43496657 Z M4.00607993,10.6363673 L4.00607993,25.279592 C4.00607993,25.3330389 4.04823621,25.3763662 4.10023861,25.3763662 L18.4905259,25.3763662 C22.4768563,25.3763662 25.7084155,22.0550414 25.7084155,17.9579796 C25.7084155,13.8609179 22.4768563,10.5395931 18.4905259,10.5395931 L4.10023861,10.5395931 C4.04823621,10.5395931 4.00607993,10.5829203 4.00607993,10.6363673 Z" id="Rectangle" fill="url(#linearGradient-2)" fill-rule="nonzero"></path>
                            <path d="M18.4959849,31.5662139 C25.8084804,31.5662139 31.7364291,25.4735999 31.7364291,17.9579796 C31.7364291,10.4423594 25.8084804,4.34974533 18.4959849,4.34974533 L10.4739136,4.34974533 C10.3767513,4.34974533 10.2979856,4.43069894 10.2979856,4.53056027 L10.2979856,22.8667233 C10.2979856,23.1339578 10.0872042,23.3505942 9.82719222,23.3505942 L6.53659432,23.3505942 C6.27658232,23.3505942 6.06580095,23.1339578 6.06580095,22.8667233 L6.06580095,4.05942275 C6.06580095,1.81746547 7.83414573,-4.29763751e-17 10.0155096,0 L18.4959849,4.29763751e-16 C28.1458514,-1.41822038e-15 35.9686138,8.04006134 35.9686138,17.9579796 C35.9686138,27.8758979 28.1458514,35.9159593 18.4959849,35.9159593 L10.0155096,35.9159593 C7.83414573,35.9159593 6.06580095,34.0984938 6.06580095,31.8565365 L6.06580095,31.5662139 L18.4959849,31.5662139 Z" id="Path" fill="url(#linearGradient-2)" fill-rule="nonzero"></path>
                        </g>
                        <polygon id="Rectangle-2" fill="#3378D4" points="6.06570166 6.43548387 10.2981342 6.43548387 10.2981342 10.5396774 6.06570166 10.5396774"></polygon>
                    </g>
                </g>
            </g>
        </g>
    </g>
</svg>