<?xml version="1.0" encoding="UTF-8"?>
<svg width="60px" height="50px" viewBox="0 0 60 50" version="1.1" xmlns="http://www.w3.org/2000/svg" xmlns:xlink="http://www.w3.org/1999/xlink">
    <!-- Generator: Sketch 51 (57462) - http://www.bohemiancoding.com/sketch -->
    <title>应用接入</title>
    <desc>Created with Sketch.</desc>
    <defs></defs>
    <g id="Page-1" stroke="none" stroke-width="1" fill="none" fill-rule="evenodd">
        <g id="01-00-00-首页" transform="translate(-1235.000000, -749.000000)">
            <rect fill="#F2F7FA" x="0" y="0" width="1920" height="1721"></rect>
            <g id="应用接入" transform="translate(1235.000000, 749.000000)" fill-rule="nonzero">
                <path d="M6,2 C3.790861,2 2,3.790861 2,6 L2,44 C2,46.209139 3.790861,48 6,48 L54,48 C56.209139,48 58,46.209139 58,44 L58,6 C58,3.790861 56.209139,2 54,2 L6,2 Z M6,0 L54,0 C57.3137085,0 60,2.6862915 60,6 L60,44 C60,47.3137085 57.3137085,50 54,50 L6,50 C2.6862915,50 0,47.3137085 0,44 L0,6 C0,2.6862915 2.6862915,0 6,0 Z" id="Rectangle-12" fill="#333333"></path>
                <path d="M26,29 C28.2098254,29 30,27.2085193 30,25 C30,22.7914807 28.2098254,21 26,21 C23.7901746,21 22,22.7914807 22,25 C22,27.2085193 23.7901746,29 26,29 Z M39.917031,24 L49,24 C49.5522847,24 50,24.4477153 50,25 C50,25.5522847 49.5522847,26 49,26 L39.917031,26 C39.4410142,28.8370711 36.9738232,31 34,31 C33.4477153,31 33,30.5522847 33,30 C33,29.4477153 33.4477153,29 34,29 C36.2098254,29 38,27.2085193 38,25 C38,22.7914807 36.2098254,21 34,21 C33.4477153,21 33,20.5522847 33,20 C33,19.4477153 33.4477153,19 34,19 C36.9738232,19 39.4410142,21.1629289 39.917031,24 Z M20.082969,26 L11,26 C10.4477153,26 10,25.5522847 10,25 C10,24.4477153 10.4477153,24 11,24 L20.082969,24 C20.5589858,21.1629289 23.0261768,19 26,19 C29.3147216,19 32,21.6872377 32,25 C32,28.3127623 29.3147216,31 26,31 C23.0261768,31 20.5589858,28.8370711 20.082969,26 Z" id="Combined-Shape" fill="#7E8EB5"></path>
            </g>
        </g>
    </g>
</svg>