<?xml version="1.0" encoding="UTF-8"?>
<svg width="10px" height="16px" viewBox="0 0 10 16" version="1.1" xmlns="http://www.w3.org/2000/svg" xmlns:xlink="http://www.w3.org/1999/xlink">
    <!-- Generator: Sketch 51 (57462) - http://www.bohemiancoding.com/sketch -->
    <title>Shape</title>
    <desc>Created with Sketch.</desc>
    <defs></defs>
    <g id="Page-1" stroke="none" stroke-width="1" fill="none" fill-rule="evenodd">
        <g id="02-01-03-入驻-修改手机号码弹窗" transform="translate(-807.000000, -449.000000)">
            <rect fill="#F2F7FA" x="0" y="0" width="1920" height="1045"></rect>
            <g id="Group-4" transform="translate(744.000000, 263.000000)" fill="#2E406B" fill-rule="nonzero">
                <g id="手机号码" transform="translate(50.000000, 171.000000)">
                    <path d="M21.4373147,15 L14.5626647,15 C13.7023261,15 13,15.6005588 13,16.3331218 L13,29.6668253 C13,30.4000934 13.7023261,31 14.5626647,31 L21.4373147,31 C22.2968887,31 23,30.4000934 23,29.6668253 L23,16.3331042 C23,15.6005588 22.2968887,15 21.4373147,15 Z M17.0622462,16.0662048 L18.9377744,16.0662048 C19.1104373,16.0662048 19.2514645,16.1857983 19.2514645,16.3331218 C19.2514645,16.481221 19.1104579,16.6000388 18.9377744,16.6000388 L17.0622462,16.6000388 C16.8903273,16.6000388 16.7510357,16.481221 16.7510357,16.3331218 C16.7510357,16.1857983 16.8903066,16.0662048 17.0622462,16.0662048 Z M17.9991838,30.4661836 C17.4818359,30.4661836 17.061461,30.108884 17.061461,29.6668077 C17.061461,29.2247314 17.4818359,28.8660743 17.9991838,28.8660743 C18.5189493,28.8660743 18.9377538,29.2247314 18.9377538,29.6668077 C18.9377538,30.108884 18.51897,30.4661836 17.9991838,30.4661836 Z M22.3767112,28.3336507 L13.6257064,28.3336507 L13.6257064,17.6662965 L22.3767112,17.6662965 L22.3767112,28.3336507 Z" id="Shape"></path>
                </g>
            </g>
        </g>
    </g>
</svg>