<?xml version="1.0" encoding="UTF-8"?>
<svg width="248px" height="150px" viewBox="0 0 248 150" version="1.1" xmlns="http://www.w3.org/2000/svg" xmlns:xlink="http://www.w3.org/1999/xlink">
    <!-- Generator: Sketch 51 (57462) - http://www.bohemiancoding.com/sketch -->
    <title>示意图</title>
    <desc>Created with Sketch.</desc>
    <defs></defs>
    <g id="Page-1" stroke="none" stroke-width="1" fill="none" fill-rule="evenodd">
        <g id="02-02-00-实名认证" transform="translate(-598.000000, -410.000000)">
            <rect fill="#F2F7FA" x="0" y="0" width="1920" height="1110"></rect>
            <g id="护照正面" transform="translate(598.000000, 410.000000)">
                <g id="示意图">
                    <rect id="Mask" stroke="#C8D2EB" fill="#FEFEFF" x="0.5" y="0.5" width="247" height="149" rx="10"></rect>
                    <path d="M34.238,129.956 L27.532,127.324 L27.532,126.302 L34.238,123.67 L34.238,124.776 L30.934,125.994 L28.834,126.778 L28.834,126.834 L30.934,127.618 L34.238,128.836 L34.238,129.956 Z M42.008,129.956 L35.302,127.324 L35.302,126.302 L42.008,123.67 L42.008,124.776 L38.704,125.994 L36.604,126.778 L36.604,126.834 L38.704,127.618 L42.008,128.836 L42.008,129.956 Z M49.778,129.956 L43.072,127.324 L43.072,126.302 L49.778,123.67 L49.778,124.776 L46.474,125.994 L44.374,126.778 L44.374,126.834 L46.474,127.618 L49.778,128.836 L49.778,129.956 Z M57.548,129.956 L50.842,127.324 L50.842,126.302 L57.548,123.67 L57.548,124.776 L54.244,125.994 L52.144,126.778 L52.144,126.834 L54.244,127.618 L57.548,128.836 L57.548,129.956 Z M65.318,129.956 L58.612,127.324 L58.612,126.302 L65.318,123.67 L65.318,124.776 L62.014,125.994 L59.914,126.778 L59.914,126.834 L62.014,127.618 L65.318,128.836 L65.318,129.956 Z M73.088,129.956 L66.382,127.324 L66.382,126.302 L73.088,123.67 L73.088,124.776 L69.784,125.994 L67.684,126.778 L67.684,126.834 L69.784,127.618 L73.088,128.836 L73.088,129.956 Z M80.858,129.956 L74.152,127.324 L74.152,126.302 L80.858,123.67 L80.858,124.776 L77.554,125.994 L75.454,126.778 L75.454,126.834 L77.554,127.618 L80.858,128.836 L80.858,129.956 Z M88.628,129.956 L81.922,127.324 L81.922,126.302 L88.628,123.67 L88.628,124.776 L85.324,125.994 L83.224,126.778 L83.224,126.834 L85.324,127.618 L88.628,128.836 L88.628,129.956 Z M96.398,129.956 L89.692,127.324 L89.692,126.302 L96.398,123.67 L96.398,124.776 L93.094,125.994 L90.994,126.778 L90.994,126.834 L93.094,127.618 L96.398,128.836 L96.398,129.956 Z M104.168,129.956 L97.462,127.324 L97.462,126.302 L104.168,123.67 L104.168,124.776 L100.864,125.994 L98.764,126.778 L98.764,126.834 L100.864,127.618 L104.168,128.836 L104.168,129.956 Z M111.938,129.956 L105.232,127.324 L105.232,126.302 L111.938,123.67 L111.938,124.776 L108.634,125.994 L106.534,126.778 L106.534,126.834 L108.634,127.618 L111.938,128.836 L111.938,129.956 Z M119.708,129.956 L113.002,127.324 L113.002,126.302 L119.708,123.67 L119.708,124.776 L116.404,125.994 L114.304,126.778 L114.304,126.834 L116.404,127.618 L119.708,128.836 L119.708,129.956 Z M127.478,129.956 L120.772,127.324 L120.772,126.302 L127.478,123.67 L127.478,124.776 L124.174,125.994 L122.074,126.778 L122.074,126.834 L124.174,127.618 L127.478,128.836 L127.478,129.956 Z M135.248,129.956 L128.542,127.324 L128.542,126.302 L135.248,123.67 L135.248,124.776 L131.944,125.994 L129.844,126.778 L129.844,126.834 L131.944,127.618 L135.248,128.836 L135.248,129.956 Z M143.018,129.956 L136.312,127.324 L136.312,126.302 L143.018,123.67 L143.018,124.776 L139.714,125.994 L137.614,126.778 L137.614,126.834 L139.714,127.618 L143.018,128.836 L143.018,129.956 Z M150.788,129.956 L144.082,127.324 L144.082,126.302 L150.788,123.67 L150.788,124.776 L147.484,125.994 L145.384,126.778 L145.384,126.834 L147.484,127.618 L150.788,128.836 L150.788,129.956 Z M158.558,129.956 L151.852,127.324 L151.852,126.302 L158.558,123.67 L158.558,124.776 L155.254,125.994 L153.154,126.778 L153.154,126.834 L155.254,127.618 L158.558,128.836 L158.558,129.956 Z M166.328,129.956 L159.622,127.324 L159.622,126.302 L166.328,123.67 L166.328,124.776 L163.024,125.994 L160.924,126.778 L160.924,126.834 L163.024,127.618 L166.328,128.836 L166.328,129.956 Z M174.098,129.956 L167.392,127.324 L167.392,126.302 L174.098,123.67 L174.098,124.776 L170.794,125.994 L168.694,126.778 L168.694,126.834 L170.794,127.618 L174.098,128.836 L174.098,129.956 Z M181.868,129.956 L175.162,127.324 L175.162,126.302 L181.868,123.67 L181.868,124.776 L178.564,125.994 L176.464,126.778 L176.464,126.834 L178.564,127.618 L181.868,128.836 L181.868,129.956 Z M189.638,129.956 L182.932,127.324 L182.932,126.302 L189.638,123.67 L189.638,124.776 L186.334,125.994 L184.234,126.778 L184.234,126.834 L186.334,127.618 L189.638,128.836 L189.638,129.956 Z M197.408,129.956 L190.702,127.324 L190.702,126.302 L197.408,123.67 L197.408,124.776 L194.104,125.994 L192.004,126.778 L192.004,126.834 L194.104,127.618 L197.408,128.836 L197.408,129.956 Z M205.178,129.956 L198.472,127.324 L198.472,126.302 L205.178,123.67 L205.178,124.776 L201.874,125.994 L199.774,126.778 L199.774,126.834 L201.874,127.618 L205.178,128.836 L205.178,129.956 Z M212.948,129.956 L206.242,127.324 L206.242,126.302 L212.948,123.67 L212.948,124.776 L209.644,125.994 L207.544,126.778 L207.544,126.834 L209.644,127.618 L212.948,128.836 L212.948,129.956 Z M220.718,129.956 L214.012,127.324 L214.012,126.302 L220.718,123.67 L220.718,124.776 L217.414,125.994 L215.314,126.778 L215.314,126.834 L217.414,127.618 L220.718,128.836 L220.718,129.956 Z M75.9608239,69.3504061 L75.9608239,69.3456784 L75.9608239,71.0003712 C75.9608239,73.2082041 74.1323961,75 71.8864535,75 L29.0791694,75 C26.8236287,75 25,73.2082041 25,71.0003712 L25.0143971,69.3551338 C25.1151766,67.5113333 26.046187,61.8664671 34.3580946,60.7507313 C43.4378459,59.5309864 45.3862492,56.004127 45.3862492,56.004127 L45.3862492,54.2312418 C42.9003553,52.5529106 41.3310749,49.6548344 40.3472751,46.482552 C39.061137,46.0759703 37.9573617,44.629296 37.6838174,42.761857 C37.4342683,41.0362488 37.9669598,39.4524715 38.9267644,38.6345805 C38.8019898,37.0555308 38.7587986,35.618312 38.7587986,34.4647547 C38.7715003,31.411592 40.0148585,28.4884525 42.2153431,26.3384066 C44.4158277,24.1883608 47.3931823,22.9875332 50.4924095,23.0000976 C52.5096362,22.9990355 54.4930734,23.5103209 56.251237,24.4845934 C59.0586653,25.6854276 61.2230247,26.1251031 62.6003442,25.4159491 C62.1828292,26.9004449 61.3525982,27.9216267 60.5607595,28.6024146 C61.6117455,30.3185674 62.2260204,32.3183818 62.2260204,34.4647547 C62.2260204,35.6466781 62.1684321,37.1264462 62.0052654,38.7480451 C62.9026826,39.5943023 63.3825849,41.111892 63.1426338,42.7665847 C62.8690895,44.6434791 61.7653142,46.0948811 60.469578,46.4920073 C59.4617832,49.5933743 57.9116988,52.4299905 55.5745747,54.1225049 L55.5745747,56.004127 C55.5745747,56.0041269 57.522978,59.5309864 66.6027293,60.7507313 C74.9146369,61.8664671 75.8456473,67.5113333 75.9608239,69.3504061 Z M95,22 L149,22 C151.209139,22 153,23.790861 153,26 C153,28.209139 151.209139,30 149,30 L95,30 C92.790861,30 91,28.209139 91,26 C91,23.790861 92.790861,22 95,22 Z M94,52 L227,52 C228.656854,52 230,53.3431458 230,55 C230,56.6568542 228.656854,58 227,58 L94,58 C92.3431458,58 91,56.6568542 91,55 C91,53.3431458 92.3431458,52 94,52 Z M94,69 L227,69 C228.656854,69 230,70.3431458 230,72 C230,73.6568542 228.656854,75 227,75 L94,75 C92.3431458,75 91,73.6568542 91,72 C91,70.3431458 92.3431458,69 94,69 Z M25,102 L227,102 C228.104569,102 229,102.895431 229,104 C229,105.104569 228.104569,106 227,106 L25,106 C23.8954305,106 23,105.104569 23,104 C23,102.895431 23.8954305,102 25,102 Z" id="Combined-Shape" fill="#F4F5FA"></path>
                </g>
            </g>
        </g>
    </g>
</svg>