<?xml version="1.0" encoding="UTF-8"?>
<svg width="30px" height="30px" viewBox="0 0 30 30" version="1.1" xmlns="http://www.w3.org/2000/svg" xmlns:xlink="http://www.w3.org/1999/xlink">
    <!-- Generator: Sketch 51 (57462) - http://www.bohemiancoding.com/sketch -->
    <title>Combined Shape</title>
    <desc>Created with Sketch.</desc>
    <defs></defs>
    <g id="Page-1" stroke="none" stroke-width="1" fill="none" fill-rule="evenodd">
        <g id="04-00-00-管理中心" transform="translate(-1017.000000, -483.000000)">
            <rect fill="#F2F7FA" x="0" y="0" width="1920" height="960"></rect>
            <g id="Group-25" transform="translate(364.000000, 86.000000)" fill="#218DFF" fill-rule="nonzero">
                <g id="资金流水" transform="translate(622.000000, 319.000000)">
                    <g id="Group-21" transform="translate(31.000000, 75.000000)">
                        <g id="转出-(2)" transform="translate(0.000000, 3.000000)">
                            <path d="M20.3748069,15.768512 L7.72213552,15.768512 C7.28665843,15.768512 6.9336345,15.4246667 6.9336345,15.000512 C6.9336345,14.5763573 7.28665843,14.232512 7.72213552,14.232512 L20.3739683,14.232512 L15.3169774,9.30656001 C15.1120014,9.11373482 15.0297954,8.82818979 15.1019554,8.55967439 C15.1741154,8.29115898 15.3894117,8.08146045 15.6650948,8.01117659 C15.940778,7.94089274 16.2339454,8.02096135 16.4319179,8.22060801 L23.3933306,15.000512 L16.4319179,21.779904 C16.2778973,21.92992 16.0760411,22.005184 15.8741848,22.005184 C15.5553858,22.0051178 15.2679941,21.8180797 15.1459347,21.53123 C15.0238754,21.2443802 15.0911671,20.9141645 15.3164517,20.694464 L20.3748069,15.768512 Z M15.4105462,29.99904 C6.91944148,29.99904 0.0116468378,23.270336 0.011646807,15.000512 C0.011646807,6.730176 6.91996716,0.00147201 15.4105462,0.00147201 C21.7748008,0.00147201 27.5639754,3.89728002 29.81646,9.696192 C29.9706189,10.0930594 29.7652766,10.5365053 29.3578152,10.686656 C28.9503538,10.8368068 28.4950706,10.6368034 28.3409117,10.239936 C26.3197207,5.03494401 21.1229733,1.53747201 15.4105462,1.53747201 C7.78889529,1.53747201 1.58864889,7.57702401 1.58864886,15.000512 C1.58864886,22.423488 7.78889526,28.46304 15.4105462,28.46304 C21.2727885,28.46304 26.515269,24.842688 28.4555072,19.4544 C28.60793,19.0660157 29.0500086,18.8663114 29.4528664,19.0038536 C29.8557242,19.1413958 30.0730401,19.5662281 29.9431458,19.962304 C27.7821273,25.965504 21.941963,29.99904 15.4105462,29.99904 Z" id="Combined-Shape"></path>
                        </g>
                    </g>
                </g>
            </g>
        </g>
    </g>
</svg>