<?xml version="1.0" encoding="UTF-8"?>
<svg width="14px" height="16px" viewBox="0 0 14 16" version="1.1" xmlns="http://www.w3.org/2000/svg" xmlns:xlink="http://www.w3.org/1999/xlink">
    <!-- Generator: Sketch 51 (57462) - http://www.bohemiancoding.com/sketch -->
    <title>Shape</title>
    <desc>Created with Sketch.</desc>
    <defs></defs>
    <g id="Page-1" stroke="none" stroke-width="1" fill="none" fill-rule="evenodd">
        <g id="02-01-03-入驻-修改手机号码弹窗" transform="translate(-805.000000, -524.000000)">
            <rect fill="#F2F7FA" x="0" y="0" width="1920" height="1045"></rect>
            <g id="Group-4" transform="translate(744.000000, 263.000000)" fill="#2E406B" fill-rule="nonzero">
                <g id="验证码" transform="translate(50.000000, 246.000000)">
                    <g transform="translate(11.000000, 15.000000)" id="Shape">
                        <path d="M6.99999999,16 C4.57333333,16 -1.640625e-08,12.3930636 0,8.97109828 L0,2.49710983 C0,2.40462428 0.0466666594,2.35838151 0.0933333352,2.26589596 C0.139999995,2.21965319 0.23333333,2.17341041 0.326666665,2.17341041 L0.699999989,2.17341041 C1.77333332,2.12716764 2.84666665,1.89595375 3.87333334,1.52601157 C4.80666667,1.15606936 5.74000001,0.693641624 6.57999999,0.138728335 L6.81333334,0 L6.99999999,0 C7.04666665,0 7.13999999,0 7.18666666,0.0462427836 L7.41999999,0.184971102 C8.25999999,0.786127175 9.19333333,1.24855491 10.1266667,1.61849712 C11.1533333,1.98843932 12.2266667,2.21965319 13.3,2.26589596 L13.6733333,2.26589596 C13.7666667,2.26589596 13.8133333,2.31213872 13.9066667,2.35838151 C14,2.40462429 14,2.49710983 14,2.58959538 L14,9.06358383 C14,12.4393064 9.42666666,16 6.99999999,16 Z M12.9266667,3.283237 C11.8533333,3.19075145 10.78,2.95953758 9.75333334,2.58959538 C8.82,2.21965317 7.88666667,1.75722543 6.99999999,1.24855491 C6.11333333,1.8034682 5.22666666,2.26589596 4.24666666,2.58959538 C3.21999999,2.95953758 2.19333334,3.23699423 1.07333333,3.283237 L1.07333333,8.97109828 C1.07333333,11.6531792 5.04,14.8901734 6.99999999,14.8901734 C8.39999999,14.6589596 9.70666666,14.0115607 10.6866667,12.9942197 C11.9466667,12.0231214 12.74,10.5433526 12.9266667,8.97109828 L12.9266667,3.283237 Z M6.53333333,10.4971098 C6.39333334,10.6358381 6.25333333,10.6820809 6.06666666,10.6820809 C5.87999999,10.6820809 5.73999999,10.6358382 5.6,10.4971098 L3.68666667,8.60115607 C3.45333334,8.3699422 3.45333334,7.95375723 3.68666667,7.72254336 C3.92,7.49132949 4.34,7.49132949 4.57333333,7.72254336 L6.02,9.20231215 L9.70666666,5.54913296 C9.93999999,5.31791909 10.36,5.31791909 10.5933333,5.54913296 C10.8266667,5.78034683 10.8266667,6.1965318 10.5933333,6.42774567 L6.53333333,10.4971098 Z"></path>
                    </g>
                </g>
            </g>
        </g>
    </g>
</svg>