<?xml version="1.0" encoding="UTF-8"?>
<svg width="174px" height="313px" viewBox="0 0 174 313" version="1.1" xmlns="http://www.w3.org/2000/svg" xmlns:xlink="http://www.w3.org/1999/xlink">
    <!-- Generator: Sketch 51 (57462) - http://www.bohemiancoding.com/sketch -->
    <title>app</title>
    <desc>Created with Sketch.</desc>
    <defs>
        <linearGradient x1="46932%" y1="26347.7927%" x2="75385%" y2="5584.47443%" id="linearGradient-1">
            <stop stop-color="#808080" stop-opacity="0.25" offset="0%"></stop>
            <stop stop-color="#808080" stop-opacity="0.12" offset="54%"></stop>
            <stop stop-color="#808080" stop-opacity="0.1" offset="100%"></stop>
        </linearGradient>
        <path d="M128.603088,11.6086922 C127.616564,18.2635468 121.933304,23.2029792 115.218624,23.2413927 L57.2208782,23.3759303 C50.5116955,23.363892 44.8121516,18.454782 43.7932539,11.8104987 L13.0775632,11.8873773 C11.3859789,11.891196 9.76519197,12.5681479 8.57175927,13.7693105 C7.37832656,14.970473 6.71000853,16.5974524 6.71382844,18.2923297 L7.38041408,293.935918 C7.38422147,295.632465 8.06117533,297.257868 9.26208056,298.453901 C10.4629858,299.649933 12.08927,300.318423 13.7825135,300.312041 L160.527265,299.956477 C162.218849,299.952658 163.839636,299.275707 165.033069,298.074544 C166.226502,296.873381 166.89482,295.246402 166.891,293.551525 L166.224414,17.9079364 C166.220603,16.2130591 165.544966,14.5891171 164.346137,13.3933612 C163.147309,12.1976052 161.52349,11.5279862 159.831906,11.5318136 L128.603088,11.6086922 Z" id="path-2"></path>
    </defs>
    <g id="Page-1" stroke="none" stroke-width="1" fill="none" fill-rule="evenodd">
        <g id="03-00-00-管理中心" transform="translate(-1066.000000, -221.000000)">
            <rect fill="#F2F7FA" x="0" y="0" width="1920" height="960"></rect>
            <g id="Group-5" transform="translate(1066.000000, 221.000000)">
                <g id="app">
                    <path d="M166.190829,0.00480491551 L6.73779006,0.394003072 C5.00041854,0.397821905 3.33571979,1.09299817 2.10991066,2.32660013 C0.884101528,3.56020209 0.197594571,5.23117883 0.201414365,6.97193241 L0.901569061,305.780018 C0.906630932,307.524956 1.60496824,309.196051 2.84226844,310.424038 C4.07956863,311.652026 5.75397501,312.335817 7.49549171,312.324313 L166.94853,311.935115 C168.685902,311.931296 170.350601,311.23612 171.57641,310.002518 C172.802219,308.768916 173.488726,307.097939 173.484906,305.357186 L172.760773,6.54429493 C172.747553,2.92123827 169.806855,-0.00582861285 166.190829,0.00480491551 Z" id="Shape" fill="url(#linearGradient-1)" fill-rule="nonzero"></path>
                    <rect id="Rectangle-path" fill="#5E90FF" fill-rule="nonzero" transform="translate(86.716820, 155.872322) rotate(-0.140000) translate(-86.716820, -155.872322) " x="2.76779267" y="4.04900446" width="167.898055" height="303.646636" rx="6.5472"></rect>
                    <mask id="mask-3" fill="white">
                        <use xlink:href="#path-2"></use>
                    </mask>
                    <use id="Mask" fill="#FFFFFF" fill-rule="nonzero" xlink:href="#path-2"></use>
                    <rect id="Rectangle-path" fill="#FFFFFF" fill-rule="nonzero" transform="translate(85.107558, 16.000000) rotate(-0.860000) translate(-85.107558, -16.000000) " x="66.3999583" y="14.4037866" width="37.6" height="3.27533437" rx="1.63766718"></rect>
                    <ellipse id="Oval" fill="#FFFFFF" fill-rule="nonzero" transform="translate(112.000000, 16.000000) rotate(-0.860000) translate(-112.000000, -16.000000) " cx="112.221828" cy="16.2250364" rx="1.82192793" ry="1.81838814"></ellipse>
                    <path d="M65.6832,138.3824 L70.7904,138.3824 L81.2736,165.8 L76.4736,165.8 L73.9776,158.9264 L62.496,158.9264 L60,165.8 L55.2,165.8 L65.6832,138.3824 Z M63.84,155.24 L72.6336,155.24 L68.3328,143.2208 L68.1792,143.2208 L63.84,155.24 Z M93.6384,145.4096 C96.5568,145.4096 98.8608,146.4464 100.5504,148.52 C102.0864,150.44 102.8544,152.8976 102.8544,155.9696 C102.8544,158.888 102.0864,161.3072 100.5888,163.2272 C98.976,165.3008 96.7104,166.3376 93.8688,166.3376 C91.5648,166.3376 89.568,165.224 87.9552,163.0736 L87.9552,173.4032 L83.5776,173.4032 L83.5776,145.9472 L87.648,145.9472 L87.648,148.0592 C89.0304,146.2928 91.0272,145.4096 93.6384,145.4096 Z M92.9856,148.9424 C91.2576,148.9424 89.952,149.5952 89.0304,150.9776 C88.1856,152.168 87.8016,153.7424 87.8016,155.7392 L87.8016,156.0464 C87.8016,158.12 88.3008,159.8096 89.3376,161.0768 C90.2592,162.2288 91.4112,162.8048 92.832,162.8048 C94.752,162.8048 96.2112,162.152 97.1328,160.9232 C97.9392,159.7712 98.3616,158.12 98.3616,155.9696 C98.3616,153.8192 97.9776,152.168 97.248,151.016 C96.3264,149.6336 94.9056,148.9424 92.9856,148.9424 Z M116.7552,145.4096 C119.6736,145.4096 121.9776,146.4464 123.6672,148.52 C125.2032,150.44 125.9712,152.8976 125.9712,155.9696 C125.9712,158.888 125.2032,161.3072 123.7056,163.2272 C122.0928,165.3008 119.8272,166.3376 116.9856,166.3376 C114.6816,166.3376 112.6848,165.224 111.072,163.0736 L111.072,173.4032 L106.6944,173.4032 L106.6944,145.9472 L110.7648,145.9472 L110.7648,148.0592 C112.1472,146.2928 114.144,145.4096 116.7552,145.4096 Z M116.1024,148.9424 C114.3744,148.9424 113.0688,149.5952 112.1472,150.9776 C111.3024,152.168 110.9184,153.7424 110.9184,155.7392 L110.9184,156.0464 C110.9184,158.12 111.4176,159.8096 112.4544,161.0768 C113.376,162.2288 114.528,162.8048 115.9488,162.8048 C117.8688,162.8048 119.328,162.152 120.2496,160.9232 C121.056,159.7712 121.4784,158.12 121.4784,155.9696 C121.4784,153.8192 121.0944,152.168 120.3648,151.016 C119.4432,149.6336 118.0224,148.9424 116.1024,148.9424 Z" id="App" fill="#5E90FF"></path>
                </g>
            </g>
        </g>
    </g>
</svg>