<?xml version="1.0" encoding="UTF-8"?>
<svg width="18px" height="19px" viewBox="0 0 18 19" version="1.1" xmlns="http://www.w3.org/2000/svg" xmlns:xlink="http://www.w3.org/1999/xlink">
    <!-- Generator: Sketch 51 (57462) - http://www.bohemiancoding.com/sketch -->
    <title>搜索 (1)</title>
    <desc>Created with Sketch.</desc>
    <defs></defs>
    <g id="Page-1" stroke="none" stroke-width="1" fill="none" fill-rule="evenodd">
        <g id="05-01-02-文档搜索-多条结果" transform="translate(-632.000000, -97.000000)">
            <rect fill="#F2F7FA" x="0" y="0" width="1920" height="1871"></rect>
            <g id="输入框" transform="translate(622.000000, 86.000000)" fill="#E2E2E2" fill-rule="nonzero">
                <g id="搜索-(1)" transform="translate(10.000000, 11.000000)">
                    <path d="M8.61853835,17.2979431 C7.50061736,17.2979431 6.41049941,17.0846389 5.37850717,16.6647219 C4.30998001,16.2298088 3.35110107,15.5914217 2.52962996,14.7665842 C1.70765926,13.9417248 1.07146932,12.9795233 0.638111208,11.9072475 C0.219653788,10.8716777 0.00759048113,9.77773587 0.00759048113,8.65563242 C0.00759048113,7.53355078 0.220153373,6.43960893 0.638111208,5.40430068 C1.07146932,4.33178516 1.70765926,3.37006316 2.52962996,2.54574874 C3.35162237,1.72088939 4.30998001,1.08200101 5.37900676,0.647087835 C6.410999,0.227192713 7.50111695,0.014128204 8.61908139,0.014128204 C9.73698067,0.014128204 10.8271638,0.227192713 11.859156,0.646826266 C12.9276397,1.08200099 13.8860408,1.72062782 14.7080115,2.54574874 C15.5300039,3.37006319 16.1666717,4.33178516 16.6000516,5.40403913 C17.018509,6.43960893 17.2310719,7.53357259 17.2310719,8.65563244 C17.2310719,9.77771408 17.018509,10.8716559 16.6000516,11.9072475 C16.1666718,12.9795015 15.5299822,13.9417248 14.7080115,14.7665842 C13.8860408,15.5914217 12.9276397,16.2298088 11.858613,16.6647219 C10.8271638,17.0846389 9.73698067,17.2979431 8.61853835,17.2979431 Z M8.61908139,1.29994801 C6.66113943,1.29994801 4.82057843,2.06538908 3.43550936,3.45476585 C0.577878538,6.32236349 0.577878538,10.9889231 3.43550936,13.8575452 C4.82005713,15.2469002 6.66063985,16.0118617 8.61856007,16.0118617 C10.576502,16.0118617 12.417063,15.2469002 13.8016542,13.8570439 C15.1867016,12.4676889 15.9494822,10.6206648 15.9494822,8.65565421 C15.9494822,6.69088336 15.1867016,4.84392467 13.8021538,3.45478764 C12.4175843,2.06538908 10.5770016,1.29994801 8.61908139,1.29994801 Z" id="Shape"></path>
                    <path d="M17.3417193,18.9951355 C17.1775293,18.9951355 17.0133394,18.9326438 16.8887904,18.8066578 L13.3398849,15.2459194 C13.0897228,14.9948847 13.0897228,14.5879151 13.3398849,14.3368804 C13.5900471,14.0858458 13.9956022,14.0858458 14.2457643,14.3368804 L17.7946264,17.8976189 C18.0447886,18.1486318 18.0447886,18.5556232 17.7946264,18.8066578 C17.6695996,18.9326438 17.5054097,18.9951355 17.3417193,18.9951355 Z" id="Shape"></path>
                </g>
            </g>
        </g>
    </g>
</svg>