<?xml version="1.0" encoding="UTF-8"?>
<svg width="40px" height="40px" viewBox="0 0 40 40" version="1.1" xmlns="http://www.w3.org/2000/svg" xmlns:xlink="http://www.w3.org/1999/xlink">
    <!-- Generator: Sketch 51 (57462) - http://www.bohemiancoding.com/sketch -->
    <title>首页-电报-icon</title>
    <desc>Created with Sketch.</desc>
    <defs></defs>
    <g id="Page-1" stroke="none" stroke-width="1" fill="none" fill-rule="evenodd">
        <g id="01-11-DApp详情（展开6）-" transform="translate(-195.000000, -1331.000000)" fill="#FFFFFF">
            <rect x="0" y="0" width="375" height="1426"></rect>
            <g id="Group-198" transform="translate(0.000000, 1166.000000)" fill-rule="nonzero">
                <g id="icon" transform="translate(85.000000, 165.000000)">
                    <g id="首页-电报-icon" transform="translate(110.000000, 0.000000)">
                        <path d="M6.409713,1.25 C4.56637732,1.25 3.86754898,1.38494998 3.14738431,1.77009826 C2.55040509,2.08936624 2.08936624,2.55040509 1.77009826,3.14738431 C1.38494998,3.86754898 1.25,4.56637732 1.25,6.409713 L1.25,33.590287 C1.25,35.4336227 1.38494998,36.132451 1.77009826,36.8526157 C2.08936624,37.4495949 2.55040509,37.9106338 3.14738431,38.2299017 C3.86754898,38.61505 4.56637732,38.75 6.409713,38.75 L33.590287,38.75 C35.4336227,38.75 36.132451,38.61505 36.8526157,38.2299017 C37.4495949,37.9106338 37.9106338,37.4495949 38.2299017,36.8526157 C38.61505,36.132451 38.75,35.4336227 38.75,33.590287 L38.75,6.409713 C38.75,4.56637732 38.61505,3.86754898 38.2299017,3.14738431 C37.9106338,2.55040509 37.4495949,2.08936624 36.8526157,1.77009826 C36.132451,1.38494998 35.4336227,1.25 33.590287,1.25 L6.409713,1.25 Z M6.409713,-2.07168062e-16 L33.590287,3.10752092e-16 C35.8190838,-9.86712468e-17 36.6272994,0.232064028 37.4421143,0.667831759 C38.2569291,1.10359949 38.8964005,1.74307093 39.3321682,2.55788574 C39.767936,3.37270056 40,4.18091615 40,6.409713 L40,33.590287 C40,35.8190838 39.767936,36.6272994 39.3321682,37.4421143 C38.8964005,38.2569291 38.2569291,38.8964005 37.4421143,39.3321682 C36.6272994,39.767936 35.8190838,40 33.590287,40 L6.409713,40 C4.18091615,40 3.37270056,39.767936 2.55788574,39.3321682 C1.74307093,38.8964005 1.10359949,38.2569291 0.667831759,37.4421143 C0.232064028,36.6272994 1.34836852e-16,35.8190838 -1.38112041e-16,33.590287 L2.07168062e-16,6.409713 C-6.57808312e-17,4.18091615 0.232064028,3.37270056 0.667831759,2.55788574 C1.10359949,1.74307093 1.74307093,1.10359949 2.55788574,0.667831759 C3.37270056,0.232064028 4.18091615,2.02255278e-16 6.409713,-2.07168062e-16 Z" id="Rectangle-20"></path>
                        <g id="Telegram" transform="translate(5.714286, 10.000000)">
                            <path d="M23.6408555,0.340736679 C23.9749931,0.202784633 24.328873,0.126252932 24.6817658,0.0516710843 C24.9976419,0.0170612071 25.3954483,0.0989550011 25.5528928,0.402157024 C25.62051,0.58154343 25.6886208,0.775066265 25.6629559,0.969076562 C25.1674253,4.2438534 24.4280779,7.48109557 23.7997806,10.7334491 C23.0984371,14.1530025 22.3640252,17.5662188 21.5743351,20.9662736 C21.3966548,21.3806173 21.0486976,21.7398775 20.5995613,21.858331 C20.1341376,21.9514365 19.6134357,21.8651555 19.2511653,21.5453798 C17.4151357,20.130762 15.5415958,18.7614782 13.7159309,17.3341864 C12.5294214,16.4387168 11.3503153,15.531548 10.1529476,14.6497273 C10.12136,14.4791153 10.3291472,14.4040459 10.4165067,14.285105 C13.9345764,11.1468178 17.4654785,8.02364196 20.9889772,4.8916918 C21.1173019,4.81418518 21.2091034,4.69231941 21.2515492,4.5499802 C21.3616123,4.3335466 21.0788045,4.05715504 20.8606526,4.16342199 C20.601042,4.26871401 20.3680834,4.42665204 20.1336441,4.57679067 C16.1067179,7.11306096 12.0753496,9.64543156 8.05089114,12.1851141 C7.5923773,12.4317704 7.19358377,12.786156 6.70841788,12.9801663 C4.8245133,12.3737623 2.94603784,11.7488347 1.06410749,11.1341437 C0.6648204,10.9898547 0.243323279,10.7690339 0.0666301069,10.3639521 C-0.0636687689,9.90914907 0.244803948,9.46068306 0.655936386,9.27642202 C3.39369345,8.09237425 6.14428297,6.9370868 8.91461475,5.8285958 C13.7855223,3.90165433 18.7038114,2.09560369 23.6408555,0.340736679 Z" id="Shape"></path>
                            <path d="M20.8606526,4.16342199 C21.0788045,4.05715504 21.3616123,4.3335466 21.2515492,4.5499802 C21.2091034,4.69231941 21.1173019,4.81418518 20.9889772,4.8916918 C17.4654785,8.02364196 13.9345764,11.1468178 10.4165067,14.285105 C10.3291472,14.4040459 10.12136,14.4791153 10.1529476,14.6497273 C10.1253085,14.7057856 10.0833562,14.7564817 10.0695366,14.818877 C9.81584864,16.7750663 9.61497121,18.7414922 9.33315053,20.6923194 C9.02023581,20.4349389 8.88598848,20.0220577 8.77543186,19.6467111 C8.10715657,17.5116229 7.43888127,15.3765347 6.77159309,13.2414465 C6.73951193,13.1571154 6.69706608,13.0722969 6.70841788,12.9801663 C7.19358377,12.786156 7.5923773,12.4317704 8.05089114,12.1851141 C12.0753496,9.64543156 16.1067179,7.11306096 20.1336441,4.57679067 C20.3680834,4.42665204 20.601042,4.26871401 20.8606526,4.16342199 Z" id="Shape"></path>
                            <path d="M10.0695366,14.818877 C10.0833562,14.7564817 10.1253085,14.7057856 10.1529476,14.6497273 C11.3503153,15.531548 12.5294214,16.4387168 13.7159309,17.3341864 C12.6074033,18.3393352 11.5210858,19.3693447 10.4135454,20.3754684 C10.1593639,20.6655089 9.70282424,21.0106328 9.32476008,20.7205923 L9.33315053,20.6923194 C9.61497121,18.7414922 9.81584864,16.7750663 10.0695366,14.818877 Z" id="Shape"></path>
                        </g>
                    </g>
                </g>
            </g>
        </g>
    </g>
</svg>