<?xml version="1.0" encoding="UTF-8"?>
<svg width="40px" height="40px" viewBox="0 0 40 40" version="1.1" xmlns="http://www.w3.org/2000/svg" xmlns:xlink="http://www.w3.org/1999/xlink">
    <!-- Generator: Sketch 51 (57462) - http://www.bohemiancoding.com/sketch -->
    <title>首页-QQ-icon</title>
    <desc>Created with Sketch.</desc>
    <defs></defs>
    <g id="Page-1" stroke="none" stroke-width="1" fill="none" fill-rule="evenodd">
        <g id="01-11-DApp详情（展开6）-" transform="translate(-250.000000, -1331.000000)">
            <rect fill="#FFFFFF" x="0" y="0" width="375" height="1426"></rect>
            <g id="Group-198" transform="translate(0.000000, 1166.000000)">
                <g id="icon" transform="translate(85.000000, 165.000000)">
                    <g id="首页-QQ-icon" transform="translate(165.000000, 0.000000)">
                        <rect id="Rectangle-20-Copy" stroke="#FFFFFF" x="0.5" y="0.5" width="39" height="39" rx="4"></rect>
                        <g id="QQ" transform="translate(8.750000, 7.500000)" fill="#FFFFFF" fill-rule="nonzero">
                            <path d="M10.7000561,22.7967562 C10.7000561,24.0118423 8.87298843,24.9970215 6.61907431,24.9970215 C4.36516019,24.9970215 2.54115618,24.0118178 2.54115618,22.7967562 C2.54115618,21.5816945 4.3682238,20.5994937 6.62213792,20.5994937 C8.87605205,20.5994937 10.7031448,21.584673 10.7031448,22.7997347 L10.7000561,22.7967562 Z M15.1065591,20.5994937 C12.852645,20.5994937 11.0255773,21.584673 11.0255773,22.7997347 C11.0255773,24.0147964 12.8526199,25 15.1065591,25 C17.3604983,25 19.1875408,24.0148208 19.1875408,22.7997347 C19.1875408,21.5846486 17.3574096,20.5994693 15.1065591,20.5994693 L15.1065591,20.5994937 Z" id="Shape"></path>
                            <path d="M19.8846129,12.2402775 C19.8846129,12.2402775 19.5775235,11.9417428 19.2459001,11.643208 L19.2459001,8.14128447 C19.2459001,3.6449907 15.496792,2.44262694e-05 10.8720327,2.44262694e-05 C6.24727335,2.44262694e-05 2.49816518,3.6449907 2.49816518,8.14128447 L2.49816518,11.643208 C2.16345307,11.9417427 1.85638877,12.2402775 1.85638877,12.2402775 C1.31287395,13.0463554 0.0139528376,15.1033104 0.0139528376,17.0468134 C0.0139528376,18.9903164 0.560531275,19.3217124 0.766295508,19.3366538 C0.972059741,19.3515952 1.65986563,19.166488 2.49510157,17.9125836 C3.62818585,21.5727345 6.94457048,24.2237804 10.8628293,24.2237804 C14.781088,24.2237805 18.1097271,21.5727589 19.2366842,17.912608 C20.0780725,19.172445 20.787399,19.3605307 20.9777949,19.3426108 C21.1681908,19.3246909 21.7301125,18.9933193 21.7301125,17.0527948 C21.7301125,15.1122704 20.4311914,13.0523124 19.8876765,12.2551945 L19.8846129,12.2402775 Z" id="Shape"></path>
                            <path d="M4.71215187,13.6434248 C4.64807413,14.1165149 4.61729947,14.5933068 4.62004265,15.0704735 C4.62004265,19.5157795 7.46967855,23.1311307 10.9825612,23.1311307 C14.4954439,23.1311307 17.3451049,19.527718 17.3451049,15.0704735 C17.3458088,14.5931704 17.3129785,14.1163778 17.2468433,13.6434248 L4.71215187,13.6434248 Z M8.67031295,3.73479678 C7.749095,3.73479678 6.98140919,4.73193887 6.98140916,5.96194194 C6.98140914,7.19194502 7.73681542,8.1890627 8.67031295,8.18906272 C9.60381048,8.18906274 10.3592167,7.19192063 10.3592167,5.96194194 C10.3592167,4.73196326 9.60381045,3.73479678 8.67031295,3.73479678 Z M8.9497796,6.86650605 C8.60894026,6.86650605 8.33562593,6.45752229 8.33562593,5.95298201 C8.33562593,5.44844172 8.61200387,5.03943354 8.9497796,5.03943354 C9.28755532,5.03943354 9.56393327,5.44844172 9.56393327,5.95298201 C9.56393327,6.45752229 9.28755532,6.86650605 8.9497796,6.86650605 Z M13.1259593,3.73479678 C12.2047414,3.73479678 11.4370556,4.73193887 11.4370555,5.96194194 C11.4370555,7.19194502 12.1924618,8.1890627 13.1259593,8.18906272 C14.0594568,8.18906274 14.814838,7.19192061 14.814838,5.96194194 C14.814838,4.73196328 14.0594317,3.73479678 13.1259342,3.73479678 L13.1259593,3.73479678 Z M13.4115532,6.04553557 C13.4115532,6.05741496 13.4066976,6.06880744 13.3980553,6.07720515 C13.3894129,6.08560286 13.3776923,6.09031739 13.3654735,6.09031091 C13.3449081,6.09077468 13.3268867,6.07700974 13.3224825,6.05747405 C13.2568214,5.82307146 13.05163,5.65071603 12.8035518,5.62158601 C12.5584838,5.65609189 12.3587033,5.83030971 12.2968757,6.06343105 C12.290537,6.07953188 12.2746805,6.09019705 12.2569483,6.0902865 C12.2315228,6.0902865 12.2109075,6.07025477 12.2108937,6.04553557 L12.2108937,5.9709019 C12.2108937,5.46636162 12.4872465,5.05732903 12.8250474,5.05732903 C13.1628482,5.05732903 13.4391759,5.46636162 13.4391759,5.9709019 L13.4391759,6.04851409 L13.4115532,6.04553557 Z" id="Shape"></path>
                            <path d="M4.24233952,13.1956228 C4.08880738,13.9419595 3.7633112,17.2946158 3.91684334,18.040977 C4.07037548,18.7873382 4.71521549,18.6619478 5.64258578,18.6708833 C6.56995608,18.6798188 7.5894356,18.9186857 7.60477879,17.823033 C7.62012198,16.7273803 7.62321069,14.5689118 7.87806801,13.7718182 C8.13292533,12.9747247 4.24233952,13.1956228 4.24233952,13.1956228 Z" id="Shape"></path>
                            <path d="M4.03966404,14.7958157 L7.64468106,15.9302623 C7.6445644,15.2066344 7.72382952,14.485058 7.88113163,13.7777752 C8.13601406,12.9806573 4.24540313,13.1956228 4.24540313,13.1956228 C4.19013256,13.4673021 4.11030289,14.0912513 4.03966404,14.7958157 Z" id="Shape"></path>
                            <path d="M10.8873884,11.2849322 C13.6970969,11.2849322 15.9817224,10.290793 15.9817224,9.67580369 C15.9817224,9.21008171 13.7032492,8.72941836 10.8935156,8.72941836 C8.08378199,8.72941836 5.80533388,9.16230347 5.80533388,9.67580369 C5.80533388,10.2579562 8.08380711,11.2849322 10.8935156,11.2849322 L10.8873884,11.2849322 Z" id="Shape"></path>
                            <path d="M10.9395953,11.885029 C10.9395953,11.885029 14.1669344,11.9178658 16.7432559,10.85505 C19.3195775,9.7922342 19.2950184,9.66088674 19.5775235,9.66088672 C19.8600287,9.66088669 20.1916772,10.0549535 20.3329298,10.765475 C20.4741824,11.4759964 20.6399941,12.0372749 20.0258655,12.3865663 C19.4117369,12.7358578 15.4811735,14.9868799 11.0378569,14.9868799 L10.8167495,14.9868799 C6.37340781,14.9868799 2.43061503,12.7328793 1.82874094,12.3865663 C1.22686684,12.0402534 1.39270362,11.4909378 1.52167666,10.765475 C1.6506497,10.0400121 1.99455263,9.66088672 2.27708289,9.66088672 C2.55961316,9.66088672 2.53194022,9.78029573 5.11135051,10.85505 C7.69076081,11.9298043 10.9150111,11.885029 10.9150111,11.885029 L10.9395953,11.885029 Z" id="Shape"></path>
                        </g>
                    </g>
                </g>
            </g>
        </g>
    </g>
</svg>